<svg clip-rule="evenodd" fill-rule="evenodd" stroke-linecap="round" stroke-linejoin="round" stroke-miterlimit="1" viewBox="0 0 2240 1089" xmlns="http://www.w3.org/2000/svg"><g fill="none"><path d="m0 0h2239.37v1088.5h-2239.37z"/><g stroke="#0063ff" stroke-opacity=".6"><path d="m8.504 8.504h566.929v1031.81h-566.929z" stroke-linecap="butt" stroke-linejoin="bevel"/><path d="m294.803 765.354h-5.669v-8.504" stroke-linecap="butt" stroke-linejoin="bevel"/><path d="m294.803 756.85v9.922c0 5.671-5.669 2.833-5.669 8.504s5.669 2.833 5.669 8.504-5.669 2.832-5.669 8.503 5.669 2.833 5.669 8.504-5.669 2.833-5.669 8.504 5.669 2.833 5.669 8.504-5.669 2.833-5.669 8.504 5.669 2.833 5.669 8.504-5.669 2.833-5.669 8.504 5.669 2.833 5.669 8.504-5.669 2.833-5.669 8.504 5.669 2.833 5.669 8.504-5.669 2.833-5.669 8.504 5.669 2.833 5.669 8.504-5.669 2.833-5.669 8.504 5.669 2.833 5.669 8.504-5.669 2.833-5.669 8.504 5.669 2.833 5.669 8.504c0 5.67-5.669 2.832-5.669 8.503s5.669 2.833 5.669 8.504-5.669 2.833-5.669 8.504 5.669 2.833 5.669 8.504-5.669 2.833-5.669 8.504 5.669 2.833 5.669 8.504-5.669 2.833-5.669 8.504 5.669 2.833 5.669 8.504-5.669 2.833-5.669 8.504 5.669 2.833 5.669 8.504-5.669 2.833-5.669 8.504 5.669 2.833 5.669 8.504-5.669 2.833-5.669 8.504v9.921" stroke-linecap="butt" stroke-linejoin="bevel"/><path d="m289.134 1031.81h5.669v8.504" stroke-linecap="butt" stroke-linejoin="bevel"/><path d="m549.921 640.63h-34.015v8.504h-22.678v-8.504h-34.015v90.709h34.015v-8.504h22.678v8.504h34.015z" stroke-linecap="butt" stroke-linejoin="bevel"/><path d="m433.701 756.85v-141.732"/><path d="m408.189 731.339v-90.709h-34.016v8.504h-22.677v-8.504h-34.016v90.709h34.016v-8.504h22.677v8.504z" stroke-linecap="butt" stroke-linejoin="bevel"/><path d="m291.969 615.118h283.464"/><path d="m575.433 266.457-283.464 90.708z" stroke-linecap="butt" stroke-linejoin="bevel"/><path d="m291.969 8.504v748.346" stroke-linecap="butt" stroke-linejoin="bevel"/><path d="m575.433 756.85h-566.929" stroke-linecap="butt" stroke-linejoin="bevel"/></g></g></svg>