<?xml version="1.0" encoding="UTF-8" standalone="no"?><!DOCTYPE svg PUBLIC "-//W3C//DTD SVG 1.1//EN" "http://www.w3.org/Graphics/SVG/1.1/DTD/svg11.dtd"><svg width="100%" height="100%" viewBox="0 0 2240 1089" version="1.1" xmlns="http://www.w3.org/2000/svg" xmlns:xlink="http://www.w3.org/1999/xlink" xml:space="preserve" xmlns:serif="http://www.serif.com/" style="fill-rule:evenodd;clip-rule:evenodd;stroke-linejoin:round;stroke-miterlimit:2;"><rect id="Pixy2-Attachment" serif:id="Pixy2 Attachment" x="-0" y="0" width="2239.37" height="1088.5" style="fill:none;"/><g id="Export--3.0alpha-" serif:id="Export (3.0alpha)"><path id="Basket-Perch-2-2" serif:id="Basket Perch 2-2" d="M306.142,912.756l-8.504,-0l-0,-56.693l-8.504,-0l-0,28.346" style="fill:none;stroke:#0063ff;stroke-opacity:0.6;stroke-width:1px;stroke-linejoin:bevel;stroke-miterlimit:1;"/><path id="Basket-Perch-2-21" serif:id="Basket Perch 2-2" d="M297.638,884.409l-283.465,0" style="fill:none;stroke:#0063ff;stroke-opacity:0.6;stroke-width:1px;stroke-linejoin:bevel;stroke-miterlimit:1;"/><path id="Basket-Perch-2-22" serif:id="Basket Perch 2-2" d="M172.913,884.409l0,-28.346l-8.504,-0l0,-87.874l8.504,-0l0,-96.378l-8.504,0l0,-70.866l8.504,-0l0,-19.843" style="fill:none;stroke:#0063ff;stroke-opacity:0.6;stroke-width:1px;stroke-linejoin:bevel;stroke-miterlimit:1;"/><path id="Basket-Perch-2-23" serif:id="Basket Perch 2-2" d="M337.323,581.102l-0,-9.944l-79.37,0l-0,9.944l-243.78,0l0,19.843l8.504,-0l0,70.866l-8.504,0l0,96.378l8.504,-0l0,87.874l-8.504,-0c0,-0 0,56.693 0,56.693l-8.504,-0l0,49.606l8.504,0l0,32.599l-8.504,-0l0,25.511l8.504,0l0,17.008l-8.504,0l0,28.347l8.504,-0l0,17.008l5.67,-0c5.674,-0 5.664,-5.67 11.338,-5.67c5.693,0 5.646,5.67 11.339,5.67l8.504,-0c5.692,-0 5.645,-5.67 11.338,-5.67c5.693,0 5.646,5.67 11.339,5.67l8.504,-0c5.672,-0 5.666,-5.67 11.338,-5.67c5.673,0 5.666,5.67 11.339,5.67l8.504,-0c5.673,-0 5.666,-5.67 11.338,-5.67c5.673,0 5.666,5.67 11.339,5.67l8.504,-0c5.673,-0 5.666,-5.67 11.339,-5.67c5.672,0 5.665,5.67 11.338,5.67l8.504,-0c5.673,-0 5.666,-5.67 11.339,-5.67c5.672,0 5.665,5.67 11.338,5.67l8.504,-0c5.673,-0 5.666,-5.67 11.339,-5.67c5.672,0 5.666,5.67 11.338,5.67l8.504,-0c5.673,-0 5.666,-5.67 11.339,-5.67c5.673,0 5.666,5.67 11.338,5.67l8.504,-0c5.673,-0 5.666,-5.67 11.339,-5.67c5.673,0 5.666,5.67 11.339,5.67l5.669,-0l-0,-19.843l8.504,0" style="fill:none;stroke:#0063ff;stroke-opacity:0.6;stroke-width:1px;stroke-linejoin:bevel;stroke-miterlimit:1;"/><path id="Basket-Perch-2-24" serif:id="Basket Perch 2-2" d="M306.142,1037.48l-8.504,0l-0,-8.504l-283.465,0" style="fill:none;stroke:#0063ff;stroke-opacity:0.6;stroke-width:1px;stroke-linejoin:bevel;stroke-miterlimit:1;"/><path id="Basket-Perch-1-2" serif:id="Basket Perch 1-2" d="M297.638,1028.98l-0,-8.504l8.504,0" style="fill:none;stroke:#0063ff;stroke-opacity:0.6;stroke-width:1px;stroke-linejoin:bevel;stroke-miterlimit:1;"/><path id="Basket-Perch-1-21" serif:id="Basket Perch 1-2" d="M306.142,992.126l-8.504,-0l-0,-29.764l8.504,0" style="fill:none;stroke:#0063ff;stroke-opacity:0.6;stroke-width:1px;stroke-linejoin:bevel;stroke-miterlimit:1;"/><path id="Basket-Perch-1-22" serif:id="Basket Perch 1-2" d="M297.638,975.118l-5.669,0c-5.675,0 -5.665,5.669 -11.339,5.669c-5.693,0 -5.646,-5.669 -11.339,-5.669l-8.504,0c-5.692,0 -5.645,5.669 -11.338,5.669c-5.693,0 -5.646,-5.669 -11.339,-5.669l-8.504,0c-5.672,0 -5.666,5.669 -11.338,5.669c-5.673,0 -5.666,-5.669 -11.339,-5.669l-8.504,0c-5.673,0 -5.666,5.669 -11.338,5.669c-5.673,0 -5.666,-5.669 -11.339,-5.669l-8.504,0c-5.673,0 -5.666,5.669 -11.338,5.669c-5.673,0 -5.666,-5.669 -11.339,-5.669l-8.504,0c-5.673,0 -5.666,5.669 -11.339,5.669c-5.672,0 -5.665,-5.669 -11.338,-5.669l-8.504,0c-5.673,0 -5.666,5.669 -11.339,5.669c-5.672,0 -5.666,-5.669 -11.338,-5.669l-8.504,0c-5.673,0 -5.666,5.669 -11.339,5.669c-5.673,0 -5.666,-5.669 -11.338,-5.669l-8.504,0c-5.673,0 -5.666,5.669 -11.339,5.669c-5.673,0 -5.666,-5.669 -11.338,-5.669l-5.67,0" style="fill:none;stroke:#0063ff;stroke-opacity:0.6;stroke-width:1px;stroke-linejoin:bevel;stroke-miterlimit:1;"/><path id="Rotor-Hub" serif:id="Rotor Hub" d="M875.906,99.213c-0,-31.29 25.403,-56.693 56.692,-56.693c31.29,-0 56.693,25.403 56.693,56.693c0,31.289 -25.403,56.693 -56.693,56.693c-31.289,-0 -56.692,-25.404 -56.692,-56.693Zm19.842,-0c0,2.346 -1.905,4.252 -4.252,4.252c-2.347,-0 -4.252,-1.906 -4.252,-4.252c0,-2.347 1.905,-4.252 4.252,-4.252c2.347,-0 4.252,1.905 4.252,4.252Zm-2.899,-19.185l0.116,-1.127l0.303,-1.092l0.482,-1.026l0.647,-0.93l0.794,-0.808l0.918,-0.664l1.017,-0.5l1.086,-0.323l1.125,-0.136l1.131,0.054l1.107,0.244l15.736,4.881l5.081,-2.934l3.641,-16.068l0.342,-1.08l0.519,-1.007l0.68,-0.906l0.823,-0.78l0.941,-0.63l1.034,-0.463l1.097,-0.283l1.129,-0.096l1.129,0.096l1.097,0.283l1.034,0.463l0.942,0.63l0.823,0.78l0.68,0.906l0.519,1.007l0.342,1.08l3.641,16.068l5.081,2.934l15.736,-4.881l1.107,-0.244l1.131,-0.054l1.125,0.136l1.086,0.323l1.017,0.5l0.918,0.664l0.794,0.808l0.647,0.93l0.482,1.026l0.303,1.092l0.116,1.127l-0.075,1.13l-0.264,1.102l-0.444,1.042l-0.613,0.953l-0.764,0.837l-12.095,11.187l-0,5.867l12.095,11.187l0.764,0.837l0.613,0.953l0.444,1.042l0.264,1.102l0.075,1.13l-0.116,1.128l-0.303,1.091l-0.482,1.026l-0.647,0.93l-0.794,0.808l-0.918,0.664l-1.017,0.5l-1.086,0.323l-1.125,0.136l-1.131,-0.054l-1.107,-0.243l-15.736,-4.881l-5.081,2.933l-3.641,16.068l-0.342,1.08l-0.519,1.008l-0.68,0.906l-0.823,0.779l-0.942,0.63l-1.034,0.463l-1.097,0.283l-1.129,0.096l-1.129,-0.096l-1.097,-0.283l-1.034,-0.463l-0.941,-0.63l-0.823,-0.779l-0.68,-0.906l-0.519,-1.008l-0.342,-1.08l-3.641,-16.068l-5.081,-2.933l-15.736,4.881l-1.107,0.243l-1.131,0.054l-1.125,-0.136l-1.086,-0.323l-1.017,-0.5l-0.918,-0.664l-0.794,-0.808l-0.647,-0.93l-0.482,-1.026l-0.303,-1.091l-0.117,-1.249l0.076,-1.009l0.263,-1.102l0.445,-1.042l0.613,-0.953l0.764,-0.837l12.095,-11.187l0,-5.867l-12.095,-11.187l-0.764,-0.837l-0.613,-0.953l-0.445,-1.042l-0.263,-1.102l-0.075,-1.13Zm21.324,51.098c-2.032,-1.173 -4.635,-0.476 -5.808,1.556c-1.173,2.033 -0.476,4.635 1.556,5.809c2.033,1.173 4.635,0.476 5.809,-1.557c1.173,-2.032 0.476,-4.635 -1.557,-5.808Zm0,-63.827c2.033,-1.173 2.73,-3.776 1.557,-5.808c-1.174,-2.032 -3.776,-2.73 -5.809,-1.556c-2.032,1.173 -2.729,3.776 -1.556,5.808c1.173,2.032 3.776,2.73 5.808,1.556Zm36.851,63.827c2.032,-1.173 4.635,-0.476 5.808,1.556c1.173,2.033 0.476,4.635 -1.556,5.809c-2.033,1.173 -4.635,0.476 -5.809,-1.557c-1.173,-2.032 -0.476,-4.635 1.557,-5.808Zm-0,-63.827c-2.033,-1.173 -2.73,-3.776 -1.557,-5.808c1.174,-2.032 3.776,-2.73 5.809,-1.556c2.032,1.173 2.729,3.776 1.556,5.808c-1.173,2.032 -3.776,2.73 -5.808,1.556Zm18.425,31.914c-0,2.346 1.905,4.252 4.252,4.252c2.347,-0 4.252,-1.906 4.252,-4.252c-0,-2.347 -1.905,-4.252 -4.252,-4.252c-2.347,-0 -4.252,1.905 -4.252,4.252Z" style="fill:none;stroke:#0063ff;stroke-opacity:0.6;stroke-width:1px;stroke-linejoin:bevel;stroke-miterlimit:1;"/><path id="Rotor-Hub-Encasement" serif:id="Rotor Hub Encasement" d="M1105.51,99.213c-0,-31.29 -25.403,-56.693 -56.693,-56.693c-31.29,-0 -56.693,25.403 -56.693,56.693c-0,31.289 25.403,56.693 56.693,56.693c31.29,-0 56.693,-25.404 56.693,-56.693Zm-93.543,-0c-0,-2.347 -1.906,-4.252 -4.252,-4.252c-2.347,-0 -4.252,1.905 -4.252,4.252c-0,2.346 1.905,4.252 4.252,4.252c2.346,-0 4.252,-1.906 4.252,-4.252Zm20.551,28.231c-4.065,-2.347 -9.27,-0.952 -11.617,3.112c-2.347,4.065 -0.952,9.27 3.113,11.617c4.064,2.347 9.27,0.952 11.616,-3.113c2.347,-4.064 0.952,-9.27 -3.112,-11.616Zm-0,-56.462c4.064,-2.347 5.459,-7.552 3.112,-11.617c-2.346,-4.065 -7.552,-5.459 -11.616,-3.113c-4.065,2.347 -5.46,7.552 -3.113,11.617c2.347,4.065 7.552,5.459 11.617,3.113Zm34.724,28.231c0,-10.17 -8.256,-18.426 -18.425,-18.426c-10.169,0 -18.425,8.256 -18.425,18.426c-0,10.169 8.256,18.425 18.425,18.425c10.169,-0 18.425,-8.256 18.425,-18.425Zm0,-31.914c2.032,1.174 4.635,0.476 5.808,-1.556c1.174,-2.032 0.476,-4.635 -1.556,-5.808c-2.032,-1.174 -4.635,-0.476 -5.808,1.556c-1.174,2.032 -0.476,4.635 1.556,5.808Zm0,63.827c-2.032,1.173 -2.73,3.776 -1.556,5.808c1.173,2.033 3.776,2.73 5.808,1.557c2.032,-1.174 2.73,-3.776 1.556,-5.809c-1.173,-2.032 -3.776,-2.729 -5.808,-1.556Zm14.173,-31.913c0,4.693 3.811,8.504 8.504,8.504c4.694,-0 8.504,-3.811 8.504,-8.504c0,-4.694 -3.81,-8.504 -8.504,-8.504c-4.693,-0 -8.504,3.81 -8.504,8.504Z" style="fill:none;stroke:#0063ff;stroke-opacity:0.6;stroke-width:1px;stroke-linejoin:bevel;stroke-miterlimit:1;"/><path id="Sliding-Lid" serif:id="Sliding Lid" d="M742.677,1065.83l394.016,-0l-0,-385.512l-8.504,-8.504l-272.126,0l-2.835,2.835l0,306.141l-110.551,0l0,85.04Zm51.024,-68.032c-10.952,0 -19.843,8.891 -19.843,19.843c0,10.951 8.891,19.842 19.843,19.842l291.968,0c10.952,0 19.843,-8.891 19.843,-19.842c-0,-10.952 -8.891,-19.843 -19.843,-19.843l-291.968,0Z" style="fill:none;fill-rule:nonzero;stroke:#0063ff;stroke-opacity:0.6;stroke-width:1px;stroke-linejoin:bevel;stroke-miterlimit:1;"/><path id="Rotor-Lever" serif:id="Rotor Lever" d="M858.898,598.11c-0,-2.346 1.905,-4.252 4.252,-4.252c2.346,0 4.252,1.906 4.252,4.252c-0,2.347 -1.906,4.252 -4.252,4.252c-2.347,0 -4.252,-1.905 -4.252,-4.252Zm-20.552,28.231c4.065,-2.346 9.27,-0.952 11.617,3.113c2.347,4.065 0.952,9.27 -3.113,11.617c-4.064,2.346 -9.269,0.952 -11.616,-3.113c-2.347,-4.065 -0.952,-9.27 3.112,-11.617Zm0,-56.462c-4.064,-2.347 -5.459,-7.552 -3.112,-11.616c2.347,-4.065 7.552,-5.46 11.616,-3.113c4.065,2.347 5.46,7.552 3.113,11.617c-2.347,4.064 -7.552,5.459 -11.617,3.112Zm-24.803,28.209c0,-4.694 3.811,-8.504 8.504,-8.504c4.694,-0 8.504,3.81 8.504,8.504c0,4.693 -3.81,8.503 -8.504,8.503c-4.693,0 -8.504,-3.81 -8.504,-8.503Zm-9.921,-31.891c-2.032,1.173 -4.635,0.476 -5.808,-1.556c-1.174,-2.033 -0.476,-4.635 1.556,-5.809c2.032,-1.173 4.635,-0.476 5.808,1.557c1.174,2.032 0.476,4.634 -1.556,5.808Zm0,63.827c2.032,1.173 2.73,3.776 1.556,5.808c-1.173,2.032 -3.776,2.73 -5.808,1.556c-2.032,-1.173 -2.73,-3.776 -1.556,-5.808c1.173,-2.032 3.776,-2.73 5.808,-1.556Zm-14.173,-31.914c-0,4.694 -3.811,8.504 -8.504,8.504c-4.694,0 -8.504,-3.81 -8.504,-8.504c-0,-4.693 3.81,-8.504 8.504,-8.504c4.693,0 8.504,3.811 8.504,8.504Zm32.598,-99.235l22.677,-0l0,-8.504l-14.173,0l0,-56.693l14.173,0l0,-8.504l-22.677,0c0,0 -0.001,-69.43 0,-70.843c0.022,-38.323 65.197,-52.386 65.197,-90.709" style="fill:none;stroke:#0063ff;stroke-opacity:0.6;stroke-width:1px;stroke-linejoin:bevel;stroke-miterlimit:1;"/><path id="Rotor-Lever1" serif:id="Rotor Lever" d="M887.244,331.654l0,48.189l-8.504,-0l0,255.118l8.504,-0l0,28.346l48.189,0l0,8.504" style="fill:none;stroke:#0063ff;stroke-opacity:0.6;stroke-width:1px;stroke-linejoin:bevel;stroke-miterlimit:1;"/><path id="Rotor-Lever2" serif:id="Rotor Lever" d="M878.74,598.11c0,31.29 -25.403,56.693 -56.693,56.693c-31.289,0 -56.693,-25.403 -56.693,-56.693c0,-31.289 25.404,-56.693 56.693,-56.693l0,-51.023l-8.504,-0l0,-87.874l17.008,-0.023l0,-19.82l36.851,0c5.658,0 11.338,5.681 11.338,11.339" style="fill:none;stroke:#0063ff;stroke-opacity:0.6;stroke-width:1px;stroke-linejoin:bevel;stroke-miterlimit:1;"/><path id="Stage-Beam-2-2" serif:id="Stage Beam 2-2" d="M839.094,739.843l-68.11,-0l0.04,8.503l68.031,0c0,0 0.039,-8.503 0.039,-8.503Z" style="fill:none;stroke:#0063ff;stroke-opacity:0.6;stroke-width:1px;stroke-linejoin:bevel;stroke-miterlimit:1;"/><path id="Stage-Beam-2-21" serif:id="Stage Beam 2-2" d="M756.85,697.323l36.851,-0c5.685,-0 11.338,5.653 11.338,11.338l0,260.788c0,5.678 -5.66,11.338 -11.338,11.338" style="fill:none;stroke:#0063ff;stroke-opacity:0.6;stroke-width:1px;stroke-linejoin:bevel;stroke-miterlimit:1;"/><path id="Stage-Beam-2-22" serif:id="Stage Beam 2-2" d="M756.85,980.787l0,-308.976l-8.504,0l0,-70.866l8.504,-0l0,-25.512l-17.007,0l-0,5.669l-150.237,0l0,19.843l-8.504,-0l0,-19.843l-45.354,0l0,-5.669l-8.504,0" style="fill:none;stroke:#0063ff;stroke-opacity:0.6;stroke-width:1px;stroke-linejoin:bevel;stroke-miterlimit:1;"/><path id="Stage-Beam-2-23" serif:id="Stage Beam 2-2" d="M53.858,581.102l0,-9.944l-39.685,0c0,0 -7.086,-18.443 -7.086,-39.662c-0,-13.989 4.153,-41.102 15.59,-41.102l8.504,-0l0,-34.016l-5.669,-0l-2.835,-2.835l0,-68.031l2.835,-2.835l5.669,0l0,-34.016l-14.173,0l-2.835,-2.834l0,-104.882l2.835,-2.835l14.173,0l0,-34.016l-5.669,0l-2.835,-2.834l0,-68.032l2.835,-2.834l5.669,-0l0,-34.016l-8.504,-0c-11.369,-0 -15.59,-27.113 -15.59,-41.102c-0,-24.141 7.086,-39.663 7.086,-39.663l39.685,0l0,-9.804l62.362,-0.14l0,9.944l79.371,0l-0,-9.944l62.362,0l-0,9.944l79.37,0l-0,-9.944l62.362,0l0,9.944l79.37,0l0,-9.944l48.189,0l0,575.433l-62.362,0" style="fill:none;stroke:#0063ff;stroke-opacity:0.6;stroke-width:1px;stroke-linejoin:bevel;stroke-miterlimit:1;"/><path id="Stage-Beam-2-24" serif:id="Stage Beam 2-2" d="M464.882,884.409l116.22,0l0,-28.346l8.504,-0l0,218.268c0,-0 -283.464,-0 -283.464,-0l-0,-181.418" style="fill:none;stroke:#0063ff;stroke-opacity:0.6;stroke-width:1px;stroke-linejoin:bevel;stroke-miterlimit:1;"/><path id="Stage-Beam-2-25" serif:id="Stage Beam 2-2" d="M297.638,892.913l240.945,0l-0,42.52l8.504,0l-0,-42.52l201.259,0l0,-36.85l8.504,-0" style="fill:none;stroke:#0063ff;stroke-opacity:0.6;stroke-width:1px;stroke-linejoin:bevel;stroke-miterlimit:1;"/><path id="Stage-Beam-2-26" serif:id="Stage Beam 2-2" d="M756.85,768.189l-8.504,-0l0,-53.858l8.504,-0" style="fill:none;stroke:#0063ff;stroke-opacity:0.6;stroke-width:1px;stroke-linejoin:bevel;stroke-miterlimit:1;"/><path id="Stage-Beam-1-2" serif:id="Stage Beam 1-2" d="M853.228,697.323l-36.85,-0c-5.685,-0 -11.339,5.653 -11.339,11.338" style="fill:none;stroke:#0063ff;stroke-opacity:0.6;stroke-width:1px;stroke-linejoin:bevel;stroke-miterlimit:1;"/><path id="Stage-Beam-1-21" serif:id="Stage Beam 1-2" d="M805.039,969.449c0,5.678 5.661,11.338 11.339,11.338" style="fill:none;stroke:#0063ff;stroke-opacity:0.6;stroke-width:1px;stroke-linejoin:bevel;stroke-miterlimit:1;"/><rect id="Stage" x="538.583" y="1009.13" width="8.504" height="22.677" style="fill:none;stroke:#0063ff;stroke-opacity:0.6;stroke-width:1px;stroke-linejoin:bevel;stroke-miterlimit:1;"/><path id="Stage1" serif:id="Stage" d="M306.142,1051.65l408.189,-0c-0,-0 -0,-31.182 -0,-31.182l8.504,0l-0,-42.519l-8.504,-0l-0,-85.04" style="fill:none;stroke:#0063ff;stroke-opacity:0.6;stroke-width:1px;stroke-linejoin:bevel;stroke-miterlimit:1;"/><path id="Basket-Side" serif:id="Basket Side" d="M887.244,158.74l283.465,0l-0,19.843l8.504,-0l-0,25.511l-8.504,0l-0,85.04l8.504,-0l-0,42.52l-56.693,-0l-0,8.503l-48.189,0l-0,-8.503l-90.709,-0l0,8.503l-48.189,0l0,-8.503l-56.693,-0l0,-42.52l8.504,-0l0,-85.04l-8.504,0l0,-25.511l8.504,-0l0,-19.843Z" style="fill:none;stroke:#0063ff;stroke-opacity:0.6;stroke-width:1px;stroke-linejoin:bevel;stroke-miterlimit:1;"/><path id="Basket-Bottom" serif:id="Basket Bottom" d="M1170.71,331.654l-0,48.189l8.504,-0l-0,87.874l-8.504,-0l-0,96.377l8.504,0l-0,70.867l-8.504,-0l-0,28.346l-48.189,0l-0,8.504" style="fill:none;stroke:#0063ff;stroke-opacity:0.6;stroke-width:1px;stroke-linejoin:bevel;stroke-miterlimit:1;"/><path id="Basket-Bottom1" serif:id="Basket Bottom" d="M1074.33,671.811l-0,-8.504l-90.709,0l0,8.504" style="fill:none;stroke:#0063ff;stroke-opacity:0.6;stroke-width:1px;stroke-linejoin:bevel;stroke-miterlimit:1;"/><path id="Basket-Bottom2" serif:id="Basket Bottom" d="M878.74,564.094l8.504,0l0,-96.377l-8.504,-0" style="fill:none;stroke:#0063ff;stroke-opacity:0.6;stroke-width:1px;stroke-linejoin:bevel;stroke-miterlimit:1;"/><path id="Camera-Mount" serif:id="Camera Mount" d="M926.929,997.795l0,19.843l-8.504,-0l0,8.504l-96.378,-0m56.693,-18.425c-2.347,-0 -4.252,1.905 -4.252,4.252c0,2.346 1.905,4.251 4.252,4.251c2.347,0 4.252,-1.905 4.252,-4.251c0,-2.347 -1.905,-4.252 -4.252,-4.252Zm-17.008,-0c-2.346,-0 -4.252,1.905 -4.252,4.252c0,2.346 1.906,4.251 4.252,4.251c2.347,0 4.252,-1.905 4.252,-4.251c0,-2.347 -1.905,-4.252 -4.252,-4.252Z" style="fill:none;stroke:#0063ff;stroke-opacity:0.6;stroke-width:1px;stroke-linejoin:bevel;stroke-miterlimit:1;"/><path id="Camera-Mount1" serif:id="Camera Mount" d="M822.047,1037.48l0,-19.842l-8.504,-0l0,-19.843" style="fill:none;stroke:#0063ff;stroke-opacity:0.6;stroke-width:1px;stroke-linejoin:bevel;stroke-miterlimit:1;"/><path id="Camera-Pivot-1-2" serif:id="Camera Pivot 1-2" d="M813.543,1037.48l0,-8.504l-19.842,0l-0,8.504" style="fill:none;stroke:#0063ff;stroke-opacity:0.6;stroke-width:1px;stroke-linejoin:bevel;stroke-miterlimit:1;"/><path id="Camera-Pivot-1-21" serif:id="Camera Pivot 1-2" d="M793.701,997.795c10.951,0 19.842,8.891 19.842,19.843" style="fill:none;stroke:#0063ff;stroke-opacity:0.6;stroke-width:1px;stroke-linejoin:bevel;stroke-miterlimit:1;"/><path id="Camera-Pivot-1-22" serif:id="Camera Pivot 1-2" d="M1085.67,997.795c-10.951,0 -19.842,8.891 -19.842,19.843l-8.504,-0l-0,19.842" style="fill:none;stroke:#0063ff;stroke-opacity:0.6;stroke-width:1px;stroke-linejoin:bevel;stroke-miterlimit:1;"/><path id="Camera-Pivot-1-23" serif:id="Camera Pivot 1-2" d="M1065.83,1037.48l-0,-8.504l19.842,0l0,8.504" style="fill:none;stroke:#0063ff;stroke-opacity:0.6;stroke-width:1px;stroke-linejoin:bevel;stroke-miterlimit:1;"/><path id="Deposit-Side-2-2" serif:id="Deposit Side 2-2" d="M257.953,575.433l8.504,0l-0,5.669l22.677,0l-0,19.843l8.504,-0l-0,-19.843l150.236,0l0,-5.669l17.008,0l-0,25.512l-8.504,-0l-0,70.866l8.504,0l-0,96.378l-8.504,-0l-0,87.874l8.504,-0l-0,36.85m-195.591,-252.283l-48.189,-0l0,-8.504l48.189,-0l0,8.504m138.898,-0l-48.189,-0l-0,-8.504l48.189,-0l-0,8.504m-110.551,127.559l-8.504,-0l-0,-96.378l8.504,0l-0,96.378m-102.047,104.882c-0,-2.347 -1.906,-4.252 -4.252,-4.252c-2.347,-0 -4.252,1.905 -4.252,4.252c-0,2.347 1.905,4.252 4.252,4.252c2.346,-0 4.252,-1.905 4.252,-4.252m239.527,-0c0,-2.347 -1.905,-4.252 -4.252,-4.252c-2.347,-0 -4.252,1.905 -4.252,4.252c0,2.347 1.905,4.252 4.252,4.252c2.347,-0 4.252,-1.905 4.252,-4.252" style="fill:none;stroke:#0063ff;stroke-opacity:0.6;stroke-width:1px;stroke-linejoin:bevel;stroke-miterlimit:1;"/><rect id="Deposit-Side-1-2" serif:id="Deposit Side 1-2" x="581.102" y="671.694" width="8.504" height="96.378" style="fill:none;stroke:#0063ff;stroke-opacity:0.6;stroke-width:1px;stroke-linejoin:bevel;stroke-miterlimit:1;"/><path id="Rail" d="M566.929,1062.99c0,-2.347 1.905,-4.252 4.252,-4.252c2.347,0 4.252,1.905 4.252,4.252c0,2.347 -1.905,4.252 -4.252,4.252c-2.347,0 -4.252,-1.905 -4.252,-4.252Zm-239.527,0c-0,-2.347 1.905,-4.252 4.252,-4.252c2.346,0 4.252,1.905 4.252,4.252c-0,2.347 -1.906,4.252 -4.252,4.252c-2.347,0 -4.252,-1.905 -4.252,-4.252Z" style="fill:none;stroke:#0063ff;stroke-opacity:0.6;stroke-width:1px;stroke-linejoin:bevel;stroke-miterlimit:1;"/><path id="Face-Plate" serif:id="Face Plate" d="M18.448,527.251c2.334,0 4.229,1.895 4.229,4.229c0,2.334 -1.895,4.229 -4.229,4.229c-2.334,0 -4.229,-1.895 -4.229,-4.229c-0,-2.334 1.895,-4.229 4.229,-4.229Zm0,-476.22c2.334,-0 4.229,1.895 4.229,4.229c0,2.334 -1.895,4.229 -4.229,4.229c-2.334,-0 -4.229,-1.895 -4.229,-4.229c-0,-2.334 1.895,-4.229 4.229,-4.229Zm153.048,172.356c0,-3.129 2.54,-5.669 5.669,-5.669c3.129,-0 5.67,2.54 5.67,5.669c-0,3.129 -2.541,5.669 -5.67,5.669l0,4.252l15.591,0l-0,116.771l-59.528,0.04l0,-116.811l15.591,0l-0,-4.252c-3.129,0 -5.669,-2.54 -5.669,-5.669c-0,-3.129 2.54,-5.669 5.669,-5.669c3.129,-0 5.669,2.54 5.669,5.669l17.008,-0Zm-22.677,130.944c3.129,-0 5.669,2.54 5.669,5.669c0,3.129 -2.54,5.669 -5.669,5.669c-3.129,0 -5.669,-2.54 -5.669,-5.669c-0,-3.129 2.54,-5.669 5.669,-5.669Zm28.346,-0c3.129,-0 5.67,2.54 5.67,5.669c-0,3.129 -2.541,5.669 -5.67,5.669c-3.129,0 -5.669,-2.54 -5.669,-5.669c0,-3.129 2.54,-5.669 5.669,-5.669Zm86.457,184.252l0,-8.504l-70.866,-0l-0,8.504l70.866,-0Zm0,-150.237l0,-8.503l-70.866,-0l-0,8.503l70.866,0Zm0,127.56l0,-8.504l-39.685,-0l0,8.504l39.685,-0Zm0,-104.882l0,-8.504l-39.685,-0l0,8.504l39.685,-0Zm-31.181,-59.528l-0,-70.866l-8.504,-0l0,70.866l8.504,0Zm-0,-167.244l-0,-87.874l-8.504,-0l0,87.874l8.504,-0Zm42.52,-127.559l-0,-8.504l-42.52,-0l-0,8.504l42.52,-0Zm110.551,-0l-0,-8.504l-25.512,-0l-0,8.504l25.512,-0Zm62.362,331.653l0,-8.503l-87.874,-0l-0,8.503l87.874,0Zm0,150.237l0,-8.504l-87.874,-0l-0,8.504l87.874,-0Zm7.61,-454.542l-34.075,-34.074l-6.013,6.013l34.075,34.074l6.013,-6.013Zm46.248,416.274l0,-19.843l-28.346,0l-0,19.843l28.346,-0Zm-28.346,-120.472l14.173,-0l0,-273.539l14.173,-0l0,-19.843l-28.346,-0l-0,293.382Zm11.338,73.7l0,-42.519l-8.504,-0l0,42.519l8.504,0Zm-1.803,107.029l20.044,-20.044l-6.013,-6.013l-20.044,20.044l6.013,6.013Zm0,-534.372l20.044,20.044l-6.013,6.013l-20.044,-20.044l6.013,-6.013Z" style="fill:none;fill-rule:nonzero;stroke:#0063ff;stroke-opacity:0.6;stroke-width:1px;stroke-linejoin:bevel;stroke-miterlimit:1;"/><path id="Face-Plate1" serif:id="Face Plate" d="M527.244,104.882l-8.504,-0l0,377.008l8.486,0.001" style="fill:none;fill-rule:nonzero;stroke:#0063ff;stroke-opacity:0.6;stroke-width:1px;stroke-linejoin:bevel;stroke-miterlimit:1;"/><path id="Face-Plate2" serif:id="Face Plate" d="M479.055,581.102l0,-9.944l-79.37,0l0,9.944" style="fill:none;fill-rule:nonzero;stroke:#0063ff;stroke-opacity:0.6;stroke-width:1px;stroke-linejoin:bevel;stroke-miterlimit:1;"/><path id="Face-Plate3" serif:id="Face Plate" d="M195.591,581.102l-0,-9.944l-79.371,0l0,9.944" style="fill:none;fill-rule:nonzero;stroke:#0063ff;stroke-opacity:0.6;stroke-width:1px;stroke-linejoin:bevel;stroke-miterlimit:1;"/><path id="Basket-Front-Window" serif:id="Basket Front Window" d="M813.543,235.276l0,70.866l8.504,-0l0,-70.866l-8.504,-0Zm-127.559,-36.851l0,8.504l96.378,0l0,-8.504l-96.378,0Zm-87.874,-150.236l0,8.504l87.874,-0l0,-8.504l-87.874,-0Zm62.362,481.89l0,8.504l25.512,-0l0,-8.504l-25.512,-0Zm-69.972,-27.349l34.075,34.075l6.013,-6.013l-34.074,-34.075l-6.014,6.013Zm-29.24,-295.801l-2.835,0l0,293.386l14.173,-0l0,-293.386l25.512,0l0,-8.504l-36.85,0l-0,8.504Zm1.803,-180.729l-20.044,20.044l6.013,6.013l20.044,-20.044l-6.013,-6.013Zm-0,534.372l-20.044,-20.044l6.013,-6.013l20.044,20.044l-6.013,6.013Z" style="fill:none;stroke:#0063ff;stroke-opacity:0.6;stroke-width:1px;stroke-linejoin:bevel;stroke-miterlimit:1;"/><path id="Basket-Front-Window1" serif:id="Basket Front Window" d="M527.244,45.288c0.046,-22.55 22.805,-39.619 45.354,-39.619c41.039,0 89.697,4.146 136.063,31.875c5.385,3.22 17.091,10.645 31.181,10.645c0.148,-0 0.001,8.504 0.001,8.504l42.519,-0l0,-8.504c0,-0 70.866,-0 70.866,-0l0,8.504l25.512,-0l0,11.338l-5.669,0l-0,119.056l5.669,-0" style="fill:none;stroke:#0063ff;stroke-opacity:0.6;stroke-width:1px;stroke-linejoin:bevel;stroke-miterlimit:1;"/><path id="Basket-Front-Window2" serif:id="Basket Front Window" d="M878.74,198.425l-25.512,0l0,8.504l25.512,0c5.128,0 8.504,1.564 8.504,5.669" style="fill:none;stroke:#0063ff;stroke-opacity:0.6;stroke-width:1px;stroke-linejoin:bevel;stroke-miterlimit:1;"/><path id="Basket-Front-Window3" serif:id="Basket Front Window" d="M822.047,538.583l-8.504,-0l0,-8.504l-42.519,-0l-0,8.504l-31.181,-0c-14.085,-0 -25.797,7.425 -31.182,10.645c-46.366,27.729 -95.024,31.874 -136.063,31.874c-22.572,0 -45.354,-17.102 -45.354,-39.685" style="fill:none;stroke:#0063ff;stroke-opacity:0.6;stroke-width:1px;stroke-linejoin:bevel;stroke-miterlimit:1;"/></g></svg>