<?xml version="1.0" encoding="utf-8"?>
<!-- Generator: Adobe Illustrator 24.1.2, SVG Export Plug-In . SVG Version: 6.00 Build 0)  -->
<svg version="1.1" id="SHEET_x5F_VIEW_x5F_1_x5F_DRAWING_x5F_1"
	 xmlns="http://www.w3.org/2000/svg" xmlns:xlink="http://www.w3.org/1999/xlink" x="0px" y="0px" viewBox="0 0 1133.9 1133.9"
	 style="enable-background:new 0 0 1133.9 1133.9;" xml:space="preserve">
<style type="text/css">
	.st0{fill:none;stroke:#0000FF;stroke-width:2.834600e-02;stroke-miterlimit:10;}
</style>
<g>
	<line class="st0" x1="499.5" y1="922.9" x2="571.5" y2="922.9"/>
	<line class="st0" x1="63" y1="880.3" x2="60.2" y2="880.3"/>
	<line class="st0" x1="671.6" y1="706.3" x2="679.5" y2="706.3"/>
	<line class="st0" x1="103.5" y1="598.3" x2="103.5" y2="634.3"/>
	<line class="st0" x1="103.5" y1="675.1" x2="103.5" y2="634.3"/>
	<line class="st0" x1="103.5" y1="634.3" x2="111.5" y2="634.3"/>
	<line class="st0" x1="373.5" y1="715.5" x2="373.5" y2="707.2"/>
	<line class="st0" x1="679.5" y1="922.3" x2="679.5" y2="850.3"/>
	<line class="st0" x1="671.6" y1="598.3" x2="671.6" y2="598.3"/>
	<path class="st0" d="M671.6,598.3"/>
	<line class="st0" x1="103.5" y1="808.3" x2="92.9" y2="808.3"/>
	<line class="st0" x1="202.5" y1="1085.7" x2="202.5" y2="1094"/>
	<line class="st0" x1="228.5" y1="655.6" x2="228.5" y2="619.6"/>
	<line class="st0" x1="580.5" y1="1085.7" x2="436.5" y2="1085.7"/>
	<line class="st0" x1="554.6" y1="655.6" x2="554.6" y2="619.6"/>
	<line class="st0" x1="1095.7" y1="634.3" x2="1095.7" y2="598.3"/>
	<line class="st0" x1="671.6" y1="1102.3" x2="671.6" y2="1066.3"/>
	<line class="st0" x1="1103.6" y1="994.3" x2="1103.6" y2="922.3"/>
	<line class="st0" x1="60.2" y1="808.3" x2="60.2" y2="880.3"/>
	<line class="st0" x1="60.2" y1="808.3" x2="49.5" y2="808.3"/>
	<line class="st0" x1="63" y1="603.1" x2="60.2" y2="603.1"/>
	<line class="st0" x1="220.2" y1="655.6" x2="220.2" y2="619.6"/>
	<line class="st0" x1="580.5" y1="1094" x2="436.5" y2="1094"/>
	<line class="st0" x1="111.5" y1="994.3" x2="103.5" y2="994.3"/>
	<line class="st0" x1="571.5" y1="922.9" x2="571.5" y2="914.6"/>
	<line class="st0" x1="103.5" y1="994.3" x2="103.5" y2="1066.3"/>
	<line class="st0" x1="571.5" y1="914.6" x2="499.5" y2="914.6"/>
	<line class="st0" x1="103.5" y1="778.3" x2="103.5" y2="706.3"/>
	<line class="st0" x1="671.6" y1="778.3" x2="679.5" y2="778.3"/>
	<line class="st0" x1="1095.7" y1="1066.3" x2="1095.7" y2="994.3"/>
	<line class="st0" x1="1095.7" y1="994.3" x2="1103.6" y2="994.3"/>
	<line class="st0" x1="977.1" y1="1085.7" x2="833.1" y2="1085.7"/>
	<line class="st0" x1="121.5" y1="579.1" x2="121.5" y2="589.3"/>
	<line class="st0" x1="49.5" y1="808.3" x2="49.5" y2="975.1"/>
	<line class="st0" x1="90" y1="880.3" x2="92.9" y2="880.3"/>
	<line class="st0" x1="60.2" y1="675.1" x2="60.2" y2="603.1"/>
	<line class="st0" x1="40.5" y1="598.3" x2="49.5" y2="598.3"/>
	<line class="st0" x1="63" y1="603.1" x2="63" y2="880.3"/>
	<line class="st0" x1="436.5" y1="1085.7" x2="436.5" y2="1094"/>
	<line class="st0" x1="671.6" y1="1102.3" x2="111.5" y2="1102.3"/>
	<line class="st0" x1="103.5" y1="922.3" x2="111.5" y2="922.3"/>
	<line class="st0" x1="679.5" y1="634.3" x2="679.5" y2="598.3"/>
	<line class="st0" x1="679.5" y1="598.3" x2="679.5" y2="598.3"/>
	<line class="st0" x1="103.5" y1="778.3" x2="111.5" y2="778.3"/>
	<line class="st0" x1="283.5" y1="922.9" x2="283.5" y2="914.6"/>
	<line class="st0" x1="220.2" y1="655.6" x2="228.5" y2="655.6"/>
	<line class="st0" x1="111.5" y1="850.3" x2="103.5" y2="850.3"/>
	<line class="st0" x1="319.5" y1="715.5" x2="319.5" y2="707.2"/>
	<line class="st0" x1="387.4" y1="773.8" x2="387.4" y2="877.7"/>
	<line class="st0" x1="103.5" y1="1066.3" x2="111.5" y2="1066.3"/>
	<line class="st0" x1="111.5" y1="850.3" x2="111.5" y2="778.3"/>
	<line class="st0" x1="671.6" y1="850.3" x2="679.5" y2="850.3"/>
	<line class="st0" x1="1095.7" y1="778.3" x2="1103.6" y2="778.3"/>
	<line class="st0" x1="671.6" y1="634.3" x2="679.5" y2="634.3"/>
	<line class="st0" x1="833.1" y1="1094" x2="977.1" y2="1094"/>
	<line class="st0" x1="1095.7" y1="922.3" x2="1095.7" y2="850.3"/>
	<line class="st0" x1="1095.7" y1="778.3" x2="1095.7" y2="706.3"/>
	<line class="st0" x1="1103.6" y1="1102.3" x2="671.6" y2="1102.3"/>
	<line class="st0" x1="977.1" y1="1085.7" x2="977.1" y2="1094"/>
	<line class="st0" x1="31.6" y1="578.3" x2="31.5" y2="579.1"/>
	<line class="st0" x1="31.7" y1="577.5" x2="31.6" y2="578.3"/>
	<line class="st0" x1="31.7" y1="577.5" x2="31.9" y2="576.6"/>
	<line class="st0" x1="31.9" y1="576.6" x2="32.1" y2="575.8"/>
	<line class="st0" x1="33" y1="574.1" x2="32.1" y2="575.8"/>
	<line class="st0" x1="33" y1="574.1" x2="34.1" y2="572.5"/>
	<line class="st0" x1="35.6" y1="570.8" x2="34.1" y2="572.5"/>
	<line class="st0" x1="35.6" y1="570.8" x2="37.4" y2="569.2"/>
	<line class="st0" x1="39.7" y1="567.7" x2="37.4" y2="569.2"/>
	<line class="st0" x1="39.7" y1="567.7" x2="42.1" y2="566.4"/>
	<line class="st0" x1="47.8" y1="564" x2="42.1" y2="566.4"/>
	<line class="st0" x1="54.3" y1="562.3" x2="47.8" y2="564"/>
	<line class="st0" x1="54.3" y1="562.3" x2="60.9" y2="561.4"/>
	<line class="st0" x1="60.9" y1="561.4" x2="67.5" y2="561.1"/>
	<line class="st0" x1="103.5" y1="850.3" x2="103.5" y2="922.3"/>
	<line class="st0" x1="103.5" y1="808.3" x2="103.5" y2="850.3"/>
	<line class="st0" x1="103.5" y1="975.1" x2="103.5" y2="922.3"/>
	<line class="st0" x1="92.9" y1="880.3" x2="92.9" y2="808.3"/>
	<line class="st0" x1="103.5" y1="675.1" x2="92.9" y2="675.1"/>
	<line class="st0" x1="60.2" y1="675.1" x2="49.5" y2="675.1"/>
	<line class="st0" x1="92.9" y1="603.1" x2="92.9" y2="675.1"/>
	<line class="st0" x1="121.4" y1="590.9" x2="121.5" y2="589.3"/>
	<line class="st0" x1="121.4" y1="590.9" x2="121" y2="592.4"/>
	<line class="st0" x1="120.3" y1="593.8" x2="121" y2="592.4"/>
	<line class="st0" x1="120.3" y1="593.8" x2="119.4" y2="595.1"/>
	<line class="st0" x1="118.3" y1="596.2" x2="119.4" y2="595.1"/>
	<line class="st0" x1="117" y1="597.1" x2="118.3" y2="596.2"/>
	<line class="st0" x1="117" y1="597.1" x2="115.6" y2="597.8"/>
	<line class="st0" x1="115.6" y1="597.8" x2="114.1" y2="598.2"/>
	<line class="st0" x1="112.5" y1="598.3" x2="114.1" y2="598.2"/>
	<line class="st0" x1="92.9" y1="603.1" x2="90" y2="603.1"/>
	<line class="st0" x1="90" y1="880.3" x2="90" y2="603.1"/>
	<line class="st0" x1="228.5" y1="619.6" x2="220.2" y2="619.6"/>
	<line class="st0" x1="283.5" y1="914.6" x2="211.5" y2="914.6"/>
	<line class="st0" x1="39" y1="598.2" x2="37.5" y2="597.8"/>
	<line class="st0" x1="36" y1="597.1" x2="37.5" y2="597.8"/>
	<line class="st0" x1="36" y1="597.1" x2="34.7" y2="596.2"/>
	<line class="st0" x1="33.6" y1="595.1" x2="34.7" y2="596.2"/>
	<line class="st0" x1="33.6" y1="595.1" x2="32.7" y2="593.8"/>
	<line class="st0" x1="32.1" y1="592.4" x2="32.7" y2="593.8"/>
	<line class="st0" x1="31.5" y1="589.3" x2="31.7" y2="590.9"/>
	<line class="st0" x1="32.1" y1="592.4" x2="31.7" y2="590.9"/>
	<line class="st0" x1="40.5" y1="598.3" x2="39" y2="598.2"/>
	<line class="st0" x1="111.5" y1="1066.3" x2="111.5" y2="1102.3"/>
	<line class="st0" x1="115.7" y1="569.2" x2="117.5" y2="570.8"/>
	<line class="st0" x1="117.5" y1="570.8" x2="119" y2="572.5"/>
	<line class="st0" x1="120.1" y1="574.1" x2="119" y2="572.5"/>
	<line class="st0" x1="120.1" y1="574.1" x2="120.9" y2="575.8"/>
	<line class="st0" x1="121.2" y1="576.6" x2="120.9" y2="575.8"/>
	<line class="st0" x1="121.2" y1="576.6" x2="121.4" y2="577.5"/>
	<line class="st0" x1="121.5" y1="579.1" x2="121.5" y2="578.3"/>
	<line class="st0" x1="121.4" y1="577.5" x2="121.5" y2="578.3"/>
	<line class="st0" x1="98.8" y1="562.3" x2="92.3" y2="561.4"/>
	<line class="st0" x1="98.8" y1="562.3" x2="105.2" y2="564"/>
	<line class="st0" x1="105.2" y1="564" x2="111" y2="566.4"/>
	<line class="st0" x1="111" y1="566.4" x2="113.5" y2="567.7"/>
	<line class="st0" x1="115.7" y1="569.2" x2="113.5" y2="567.7"/>
	<line class="st0" x1="85.5" y1="561.1" x2="92.3" y2="561.4"/>
	<line class="st0" x1="202.5" y1="1094" x2="346.5" y2="1094"/>
	<line class="st0" x1="346.5" y1="1085.7" x2="346.5" y2="1094"/>
	<line class="st0" x1="580.5" y1="1085.7" x2="580.5" y2="1094"/>
	<line class="st0" x1="111.5" y1="706.3" x2="111.5" y2="634.3"/>
	<line class="st0" x1="499.5" y1="922.9" x2="499.5" y2="914.6"/>
	<line class="st0" x1="346.5" y1="1085.7" x2="202.5" y2="1085.7"/>
	<line class="st0" x1="395.7" y1="773.8" x2="387.4" y2="773.8"/>
	<line class="st0" x1="111.5" y1="994.3" x2="111.5" y2="922.3"/>
	<line class="st0" x1="562.9" y1="619.6" x2="554.6" y2="619.6"/>
	<line class="st0" x1="319.5" y1="707.2" x2="373.5" y2="707.2"/>
	<line class="st0" x1="463.5" y1="707.2" x2="463.5" y2="715.5"/>
	<line class="st0" x1="562.9" y1="655.6" x2="562.9" y2="619.6"/>
	<line class="st0" x1="211.5" y1="922.9" x2="211.5" y2="914.6"/>
	<line class="st0" x1="211.5" y1="922.9" x2="283.5" y2="922.9"/>
	<line class="st0" x1="463.5" y1="707.2" x2="409.5" y2="707.2"/>
	<line class="st0" x1="319.5" y1="715.5" x2="373.5" y2="715.5"/>
	<line class="st0" x1="409.5" y1="707.2" x2="409.5" y2="715.5"/>
	<line class="st0" x1="171.5" y1="844.4" x2="173.7" y2="845.5"/>
	<line class="st0" x1="171.5" y1="844.4" x2="169" y2="843.8"/>
	<line class="st0" x1="161.6" y1="844.4" x2="159.3" y2="845.5"/>
	<line class="st0" x1="157.3" y1="846.9" x2="159.3" y2="845.5"/>
	<line class="st0" x1="157.3" y1="846.9" x2="155.5" y2="848.7"/>
	<line class="st0" x1="152.3" y1="855.5" x2="152.1" y2="858"/>
	<line class="st0" x1="152.1" y1="858" x2="152.3" y2="860.5"/>
	<line class="st0" x1="153" y1="862.9" x2="152.3" y2="860.5"/>
	<line class="st0" x1="153" y1="862.9" x2="154.1" y2="865.2"/>
	<line class="st0" x1="155.5" y1="867.2" x2="154.1" y2="865.2"/>
	<line class="st0" x1="155.5" y1="867.2" x2="157.3" y2="869"/>
	<line class="st0" x1="159.3" y1="870.4" x2="157.3" y2="869"/>
	<line class="st0" x1="159.3" y1="870.4" x2="161.6" y2="871.5"/>
	<line class="st0" x1="164" y1="872.1" x2="161.6" y2="871.5"/>
	<line class="st0" x1="164" y1="872.1" x2="166.5" y2="872.4"/>
	<line class="st0" x1="154.1" y1="850.8" x2="153" y2="853"/>
	<line class="st0" x1="152.3" y1="855.5" x2="153" y2="853"/>
	<line class="st0" x1="154.1" y1="850.8" x2="155.5" y2="848.7"/>
	<line class="st0" x1="169" y1="872.1" x2="166.5" y2="872.4"/>
	<line class="st0" x1="169" y1="872.1" x2="171.5" y2="871.5"/>
	<line class="st0" x1="173.7" y1="870.4" x2="171.5" y2="871.5"/>
	<line class="st0" x1="173.7" y1="870.4" x2="175.8" y2="869"/>
	<line class="st0" x1="177.6" y1="867.2" x2="175.8" y2="869"/>
	<line class="st0" x1="177.6" y1="867.2" x2="179" y2="865.2"/>
	<line class="st0" x1="180.1" y1="862.9" x2="179" y2="865.2"/>
	<line class="st0" x1="180.1" y1="862.9" x2="180.7" y2="860.5"/>
	<line class="st0" x1="180.9" y1="858" x2="180.7" y2="860.5"/>
	<line class="st0" x1="180.7" y1="855.5" x2="180.9" y2="858"/>
	<line class="st0" x1="180.7" y1="855.5" x2="180.1" y2="853"/>
	<line class="st0" x1="179" y1="850.8" x2="180.1" y2="853"/>
	<line class="st0" x1="179" y1="850.8" x2="177.6" y2="848.7"/>
	<line class="st0" x1="175.8" y1="846.9" x2="177.6" y2="848.7"/>
	<line class="st0" x1="175.8" y1="846.9" x2="173.7" y2="845.5"/>
	<line class="st0" x1="166.5" y1="843.6" x2="164" y2="843.8"/>
	<line class="st0" x1="161.6" y1="844.4" x2="164" y2="843.8"/>
	<line class="st0" x1="166.5" y1="843.6" x2="169" y2="843.8"/>
	<line class="st0" x1="554.6" y1="655.6" x2="562.9" y2="655.6"/>
	<line class="st0" x1="103.5" y1="706.3" x2="111.5" y2="706.3"/>
	<line class="st0" x1="395.7" y1="773.8" x2="395.7" y2="877.7"/>
	<line class="st0" x1="387.4" y1="877.7" x2="395.7" y2="877.7"/>
	<line class="st0" x1="409.5" y1="715.5" x2="463.5" y2="715.5"/>
	<line class="st0" x1="31.5" y1="579.1" x2="31.5" y2="589.3"/>
	<line class="st0" x1="833.1" y1="1085.7" x2="833.1" y2="1094"/>
	<line class="st0" x1="1095.7" y1="922.3" x2="1103.6" y2="922.3"/>
	<line class="st0" x1="671.6" y1="850.3" x2="671.6" y2="778.3"/>
	<line class="st0" x1="1103.6" y1="850.3" x2="1103.6" y2="778.3"/>
	<line class="st0" x1="1095.7" y1="850.3" x2="1103.6" y2="850.3"/>
	<line class="st0" x1="1103.6" y1="1102.3" x2="1103.6" y2="1066.3"/>
	<line class="st0" x1="671.6" y1="994.3" x2="671.6" y2="922.3"/>
	<line class="st0" x1="1095.7" y1="1066.3" x2="1103.6" y2="1066.3"/>
	<line class="st0" x1="1103.6" y1="706.3" x2="1103.6" y2="634.3"/>
	<line class="st0" x1="1095.7" y1="706.3" x2="1103.6" y2="706.3"/>
	<line class="st0" x1="671.6" y1="922.3" x2="679.5" y2="922.3"/>
	<line class="st0" x1="49.5" y1="598.3" x2="49.5" y2="675.1"/>
	<line class="st0" x1="679.5" y1="1066.3" x2="671.6" y2="1066.3"/>
	<line class="st0" x1="671.6" y1="994.3" x2="679.5" y2="994.3"/>
	<line class="st0" x1="679.5" y1="778.3" x2="679.5" y2="706.3"/>
	<line class="st0" x1="671.6" y1="706.3" x2="671.6" y2="634.3"/>
	<line class="st0" x1="1095.7" y1="634.3" x2="1103.6" y2="634.3"/>
	<line class="st0" x1="679.5" y1="1066.3" x2="679.5" y2="994.3"/>
	<line class="st0" x1="103.5" y1="975.1" x2="49.5" y2="975.1"/>
	<path class="st0" d="M1103.6,598.3"/>
	<line class="st0" x1="85.5" y1="561.1" x2="67.5" y2="561.1"/>
	<line class="st0" x1="103.5" y1="598.3" x2="671.6" y2="598.3"/>
	<line class="st0" x1="671.6" y1="598.3" x2="679.5" y2="598.3"/>
	<line class="st0" x1="1103.6" y1="598.3" x2="679.5" y2="598.3"/>
</g>
</svg>
