<svg clip-rule="evenodd" fill-rule="evenodd" stroke-linejoin="round" stroke-miterlimit="2" viewBox="0 0 2240 1089" xmlns="http://www.w3.org/2000/svg"><g fill="none"><path d="m0 0h2239.37v1088.5h-2239.37z"/><g stroke="#0063ff" stroke-linejoin="bevel" stroke-miterlimit="1" stroke-opacity=".6"><path d="m785.197 433.701h-141.732m116.22 25.512h-90.709v34.015h8.504v22.678h-8.504v34.015h90.709v-34.015h-8.504v-22.678h8.504z"/><path d="m759.685 317.48h-90.709v34.016h8.504v22.677h-8.504v34.016h90.709v-34.016h-8.504v-22.677h8.504z"/><path d="m286.299 8.504v9.921c0 5.671-5.669 2.833-5.669 8.504s5.669 2.833 5.669 8.504-5.669 2.833-5.669 8.504 5.669 2.833 5.669 8.504-5.669 2.833-5.669 8.504 5.669 2.833 5.669 8.504-5.669 2.833-5.669 8.504 5.669 2.833 5.669 8.504-5.669 2.833-5.669 8.504 5.669 2.833 5.669 8.504-5.669 2.833-5.669 8.504c0 5.67 5.669 2.832 5.669 8.503s-5.669 2.833-5.669 8.504 5.669 2.833 5.669 8.504-5.669 2.833-5.669 8.504 5.669 2.833 5.669 8.504-5.669 2.833-5.669 8.504 5.669 2.833 5.669 8.504-5.669 2.833-5.669 8.504 5.669 2.833 5.669 8.504-5.669 2.833-5.669 8.504 5.669 2.833 5.669 8.504-5.669 2.833-5.669 8.504 5.669 2.833 5.669 8.504-5.669 2.833-5.669 8.504 5.669 2.833 5.669 8.504-5.669 2.833-5.669 8.503c0 5.671 5.669 2.833 5.669 8.504s-5.669 2.833-5.669 8.504 5.669 2.833 5.669 8.504-5.669 2.833-5.669 8.504v9.922l90.709 283.464"/><path d="m8.504 291.969h1320.94v-283.465h-1320.94v566.929h776.693v-283.464"/><path d="m558.425 291.969v-283.465"/><path d="m643.465 575.433v-283.464"/><path d="m280.63 8.504v8.504h5.669"/><path d="m280.63 283.465h5.669v8.504"/></g></g></svg>