<svg clip-rule="evenodd" fill-rule="evenodd" stroke-linecap="round" stroke-linejoin="round" stroke-miterlimit="1" viewBox="0 0 2240 1089" xmlns="http://www.w3.org/2000/svg"><g fill="none"><path d="m0 0h2239.37v1088.5h-2239.37z"/><g stroke="#0063ff" stroke-opacity=".6"><path d="m1760.32 938.268h51.024v25.512h39.685v-25.512h8.504v25.512h8.503v36.85h-31.181v8.504h31.181v14.173h-340.157" stroke-linecap="butt" stroke-linejoin="bevel"/><path d="m1748.98 955.276 56.693 68.031" stroke-linecap="butt" stroke-linejoin="bevel"/><path d="m1703.62 983.622v-8.504" stroke-linecap="butt" stroke-linejoin="bevel"/><path d="m1607.24 975.118h8.504v8.504h-8.504z" stroke-linecap="butt" stroke-linejoin="bevel"/><path d="m1703.62 983.622h-48.189v-8.504h48.189" stroke-linecap="butt" stroke-linejoin="bevel"/><path d="m1669.61 1023.31v-76.535h90.709" stroke-linecap="butt" stroke-linejoin="bevel"/><path d="m1904.88 323.15 2.812-2.835" stroke-linecap="butt" stroke-linejoin="bevel"/><path d="m2213.88 289.134h8.481l-.073 87.874h-8.504v-19.843h-8.504" stroke-linecap="butt" stroke-linejoin="bevel"/><path d="m1887.87 320.315v90.709h8.481v-34.016h306.187l2.812-2.835-.073-34.016h-283.442v-5.669h-8.504v22.677" stroke-linecap="butt" stroke-linejoin="bevel"/><path d="m1907.72 357.165-2.835-2.834" stroke-linecap="butt" stroke-linejoin="bevel"/><path d="m1201.84 924.094h-8.482" stroke-linecap="butt" stroke-linejoin="bevel"/><path d="m1139.53 513.071c51.051 0 53.858 22.546 53.858 31.181v467.717h8.577v-19.843h8.504" stroke-linecap="butt" stroke-linejoin="bevel"/><path d="m1527.87 955.276v87.874h-8.481v-31.181h-306.187l-2.812-2.835.073-34.016h283.442v-5.669h8.504v22.677" stroke-linecap="butt" stroke-linejoin="bevel"/><path d="m1508.03 992.126 2.835-2.835" stroke-linecap="butt" stroke-linejoin="bevel"/><path d="m1218.92 975.118v22.677h8.504v-5.669h283.442v-34.016l-2.812-2.834h-306.164v-121.89h-8.504" stroke-linecap="butt" stroke-linejoin="bevel"/><path d="m1896.38 320.315v19.842h8.504" stroke-linecap="butt" stroke-linejoin="bevel"/><path d="m1904.88 323.15v34.015h283.442v5.67h8.504v-22.678" stroke-linecap="butt" stroke-linejoin="bevel"/><path d="m2202.52 340.157 2.834 2.835" stroke-linecap="butt" stroke-linejoin="bevel"/><path d="m1213.23 975.118-2.834 2.835" stroke-linecap="butt" stroke-linejoin="bevel"/><path d="m583.937 513.071v473.386h-8.504v39.685s-19.884 7.086-41.102 7.086c-13.99 0-41.103-4.153-41.103-15.59v-8.504h-34.015v5.669l-2.835 2.835h-68.032l-2.834-2.835v-5.669h-34.016v14.173l-2.835 2.835h-104.881l-2.835-2.835v-14.173h-34.016v5.669l-2.835 2.835h-68.031l-2.835-2.835v-5.669h-34.015v8.504c0 11.369-27.113 15.59-41.103 15.59-24.14 0-41.102-7.086-41.102-7.086v-39.685h-8.365l-.139-62.363h8.504v-79.37h-8.504v-62.362h8.504v-79.37h-8.504v-62.362h8.504v-79.37h-8.504v-48.189h1666.77s2.834 2.835 2.834 2.835v14.173h82.205v136.063h8.504v167.244h-8.504v121.89h-240.945v19.842h-8.504" stroke-linecap="butt" stroke-linejoin="bevel"/><path d="m2230.87 787.992c-48.985 0-69.989 33.341-73.701 46.834-8.224 29.898-26.618 80.804-52.797 122.623l3.763 2.635-4.824 6.919c-4.487.301-7.848 2.158-10.938 5.821l-5.924-4.148-4.879 6.956c-33.636 47.978-97.349 71.792-154.007 71.792-6.631 0-9.289-2.202-11.339-4.252l-28.346-28.346c-3.2-3.2-5.669-6.667-5.669-9.921 0-12.368 22.754-21.665 45.354-1.418 25 22.397 87.441 25.988 153.071-52.441 23.514-28.099 51.024-116.692 51.024-170.078h22.677v-8.504h-22.677c0-53.574-27.51-141.979-51.024-170.079-65.63-78.429-128.071-74.838-153.071-52.441-22.597 20.244-45.354 11.073-45.354-1.417 0-3.254 2.467-6.72 5.669-9.922l28.346-28.346c2.05-2.05 4.708-4.252 11.339-4.252 56.862 0 120.367 23.819 154.003 71.797l4.878 6.955 5.924-4.147c3.09 3.663 6.456 5.52 10.943 5.821l4.818 6.92-3.764 2.635c26.179 41.818 44.58 92.719 52.804 122.617 3.712 13.493 24.716 46.745 73.701 46.745zm-45.354-11.281c0-2.344 1.903-4.247 4.247-4.247 2.345 0 4.248 1.903 4.248 4.247 0 2.345-1.903 4.248-4.248 4.248-2.344 0-4.247-1.903-4.247-4.248zm-240.945-253.696c0-2.347 1.905-4.252 4.252-4.252s4.252 1.905 4.252 4.252-1.905 4.252-4.252 4.252-4.252-1.905-4.252-4.252zm0 507.401c0 2.347 1.905 4.252 4.252 4.252s4.252-1.905 4.252-4.252c0-2.346-1.905-4.252-4.252-4.252s-4.252 1.906-4.252 4.252zm-28.347-505.984c-3.539 3.539-11.216 11.216-14.173 14.173-9.615 9.616-3.149 13.094 5.67 11.055 7.411-1.713 19.842-13.41 19.842-16.157v-11.906c0-3.968-4.353-4.15-11.339 2.835zm0 504.567c-3.539-3.539-11.216-11.216-14.173-14.173-9.615-9.616-3.149-13.094 5.67-11.055 7.411 1.713 19.842 13.41 19.842 16.157v11.906c0 3.969-4.353 4.15-11.339-2.835z" stroke-linecap="butt" stroke-linejoin="bevel"/><path d="m1982.25 833.837c-.417.112-1.004-.717-.845-1.228 2.154-6.924 8.616-11.956 16.244-11.956 5.033 0 9.558 2.19 12.673 5.669.778.869 2.923 2.835 10.004 2.835l62.752 1.432c3.145 0 6.465-2.686 7.109-3.224 2.324-1.94 5.315-3.109 8.577-3.109 3.167 0 6.079 1.102 8.373 2.942.469.376.452 1.451.015 1.568-1.353.363-6.806 1.824-6.806 1.824l-1.713 6.36 4.663 4.651s6.032-1.616 7.494-2.008c.425-.114 1.126.67 1.009 1.161-1.401 5.901-6.709 10.295-13.035 10.295-3.262 0-6.253-1.168-8.577-3.109-.644-.538-3.414-3.223-7.109-3.223l-62.752 1.447c-7.078 0-9.226 1.966-10.004 2.835-3.115 3.479-7.64 5.669-12.673 5.669-4.373 0-8.364-1.654-11.379-4.371-.382-.345-.051-1.365.472-1.505 1.554-.416 7.75-2.076 7.75-2.076l2.326-8.707-6.366-6.37s-6.627 1.776-8.202 2.198z" stroke-linecap="butt" stroke-linejoin="bevel"/><path d="m2099.05 779.55c0-8.774-11.338-23.91-11.338-66.614 0-39.341 11.338-59.591 11.338-66.614s-27.881-36.851-36.85-36.851c-8.774 0-23.91 11.339-66.614 11.339-39.341 0-59.591-11.339-66.615-11.339-7.023 0-36.85 27.882-36.85 36.851 0 8.774 11.339 23.91 11.339 66.614 0 39.341-11.339 59.591-11.339 66.614 0 7.024 27.881 36.851 36.85 36.851 8.774 0 23.91-11.339 66.615-11.339 39.34 0 59.59 11.339 66.614 11.339 7.023 0 36.85-27.882 36.85-36.851zm-46.772-19.842c5.476 0 9.922 4.445 9.922 9.921s-4.446 9.921-9.922 9.921c-5.475 0-9.921-4.445-9.921-9.921s4.446-9.921 9.921-9.921zm-113.385 0c5.475 0 9.921 4.445 9.921 9.921s-4.446 9.921-9.921 9.921c-5.476 0-9.922-4.445-9.922-9.921s4.446-9.921 9.922-9.921zm56.693-94.961c26.596 0 48.189 21.593 48.189 48.189s-21.593 48.189-48.189 48.189c-26.597 0-48.189-21.593-48.189-48.189s21.592-48.189 48.189-48.189zm-56.693-18.425c5.475 0 9.921 4.445 9.921 9.921s-4.446 9.921-9.921 9.921c-5.476 0-9.922-4.445-9.922-9.921s4.446-9.921 9.922-9.921zm113.385 0c5.476 0 9.922 4.445 9.922 9.921s-4.446 9.921-9.922 9.921c-5.475 0-9.921-4.445-9.921-9.921s4.446-9.921 9.921-9.921z" stroke-linecap="butt" stroke-linejoin="bevel"/><path d="m1972.91 579.708c7.079 0 9.227-1.966 10.005-2.835 3.115-3.479 7.64-5.669 12.673-5.669 9.386 0 17.007 7.621 17.007 17.008s-7.621 17.008-17.007 17.008c-5.033 0-9.558-2.191-12.673-5.67-.778-.869-2.923-2.834-10.005-2.834l-61.625-1.44c-3.146 0-6.465 2.685-7.11 3.223-2.324 1.941-5.315 3.109-8.577 3.109-7.394 0-13.396-6.003-13.396-13.396 0-7.394 6.002-13.397 13.396-13.397 3.262 0 6.253 1.169 8.577 3.109.645.538 3.414 3.224 7.11 3.224zm-73.988 14.204h-6.5l-3.3-5.7 3.3-5.7h6.5l3.3 5.7zm87.716-5.7 4.5 7.8h8.9l4.5-7.8-4.5-7.808h-8.9z" stroke-linecap="butt" stroke-linejoin="bevel"/><path d="m1760.32 639.275c48.985 0 69.989-33.341 73.701-46.834 8.224-29.898 26.618-80.805 52.797-122.623l-3.763-2.635 4.824-6.919c4.487-.301 7.849-2.158 10.938-5.821l5.924 4.148 4.879-6.956c33.636-47.978 97.349-71.792 154.007-71.792 6.631 0 9.289 2.202 11.339 4.251l28.346 28.347c3.2 3.2 5.669 6.666 5.669 9.921 0 12.368-22.754 21.665-45.354 1.418-24.999-22.397-87.441-25.989-153.071 52.44-23.514 28.1-51.023 116.693-51.023 170.079h-22.678v8.504h22.678c0 53.574 27.509 141.979 51.023 170.079 65.63 78.429 128.072 74.838 153.071 52.441 22.597-20.245 45.354-11.073 45.354 1.417 0 3.253-2.467 6.72-5.669 9.921l-28.346 28.347c-2.05 2.049-4.708 4.252-11.339 4.252-56.862 0-120.367-23.819-154.003-71.797l-4.878-6.956-5.924 4.148c-3.09-3.663-6.456-5.52-10.943-5.821l-4.818-6.92 3.764-2.636c-26.179-41.818-44.58-92.719-52.804-122.617-3.712-13.493-24.716-46.744-73.701-46.744m45.354-11.361c0 2.344-1.903 4.247-4.247 4.247-2.345 0-4.248-1.903-4.248-4.247 0-2.345 1.903-4.248 4.248-4.248 2.344 0 4.247 1.903 4.247 4.248zm240.945 253.696c0 2.347-1.905 4.252-4.252 4.252s-4.252-1.905-4.252-4.252 1.905-4.252 4.252-4.252 4.252 1.905 4.252 4.252zm0-507.402c0-2.346-1.905-4.252-4.252-4.252s-4.252 1.906-4.252 4.252c0 2.347 1.905 4.252 4.252 4.252s4.252-1.905 4.252-4.252zm28.347 505.985c3.539-3.54 11.216-11.217 14.173-14.174 9.615-9.615 3.149-13.093-5.669-11.055-7.412 1.714-19.843 13.411-19.843 16.158v11.905c0 3.969 4.354 4.151 11.339-2.834zm0-504.567c3.539 3.539 11.216 11.216 14.173 14.173 9.615 9.616 3.149 13.094-5.669 11.055-7.412-1.713-19.843-13.41-19.843-16.157v-11.906c0-3.969 4.354-4.15 11.339 2.835z" stroke-linecap="butt" stroke-linejoin="bevel"/><path d="m1193.39 666.142h8.504v-136.063h82.204v-14.173l2.835-2.835m283.465 17.008h73.7v-8.504h-73.7zm-252.284 0h73.701v-8.504h-73.701zm433.701 8.504v17.008l-17.008-17.008zm-541.417 0h17.008l-17.008 17.008zm360 22.677h51.023v-8.504h-51.023zm-48.189 0h8.504v-8.504h-8.504zm-90.709 0h8.504v-8.504h-8.504zm-90.709 0h51.024v-8.504h-51.024zm19.843 51.023h8.504v-8.503h-8.504zm232.441 0h8.504v-8.503h-8.504zm48.189 0h51.023v-8.503h-51.023zm-371.339 0h51.024v-8.503h-51.024zm154.488 52.441c-5.475 0-9.921-4.445-9.921-9.921s4.446-9.921 9.921-9.921c5.476 0 9.922 4.445 9.922 9.921s-4.446 9.921-9.922 9.921zm113.386 0c-5.475 0-9.921-4.445-9.921-9.921s4.446-9.921 9.921-9.921c5.476 0 9.922 4.445 9.922 9.921s-4.446 9.921-9.922 9.921zm0 113.386c-5.475 0-9.921-4.445-9.921-9.921s4.446-9.921 9.921-9.921c5.476 0 9.922 4.445 9.922 9.921s-4.446 9.921-9.922 9.921zm-113.386 0c-5.475 0-9.921-4.445-9.921-9.921s4.446-9.921 9.921-9.921c5.476 0 9.922 4.445 9.922 9.921s-4.446 9.921-9.922 9.921zm56.693 94.961c-7.822 0-14.173-6.351-14.173-14.173 0-7.823 6.351-14.174 14.173-14.174 7.823 0 14.174 6.351 14.174 14.174 0 7.822-6.351 14.173-14.174 14.173zm270.709 65.197h-17.008l17.008-17.008zm-541.417 0v-17.008l17.008 17.008z" stroke-linecap="butt" stroke-linejoin="bevel"/><path d="m1422.99 513.071 2.835 2.835v14.173h110.551v-14.173l2.835-2.835" stroke-linecap="butt" stroke-linejoin="bevel"/><path d="m1576.06 955.276v-8.504h-189.921v8.504" stroke-linecap="butt" stroke-linejoin="bevel"/><path d="m1292.6 955.276v-8.504h-90.708" stroke-linecap="butt" stroke-linejoin="bevel"/><path d="m583.937 544.252c0-8.635 2.806-31.181 53.858-31.181m53.859 378.425h-8.504v56.693h8.504zm402.519 0h-8.504v56.693h8.504zm-158.74-208.346h-93.543v96.378h93.543z" stroke-linecap="butt" stroke-linejoin="bevel"/><path d="m1193.39 958.11c0 8.522-2.811 25.512-53.858 25.512h-178.583c-24.458 0-38.689 8.694-42.52 28.347h-8.504v2.834h8.504v5.669h-8.504v2.835h8.504v2.835c0 8.471-2.867 11.338-11.338 11.338h-36.851c-8.471 0-11.338-2.867-11.338-11.338v-2.835h8.504v-2.835h-8.504v-5.669h8.504v-2.834h-8.504c-3.831-19.653-18.062-28.347-42.52-28.347h-178.583c-51.047 0-53.858-16.99-53.858-25.512" stroke-linecap="butt" stroke-linejoin="bevel"/><path d="m153.071 513.071c5.693 0 5.646 5.669 11.338 5.669 5.693 0 5.646-5.669 11.339-5.669" stroke-linecap="butt" stroke-linejoin="bevel"/><path d="m184.252 513.071c5.673 0 5.666 5.669 11.339 5.669 5.672 0 5.665-5.669 11.338-5.669" stroke-linecap="butt" stroke-linejoin="bevel"/><path d="m215.433 513.071c5.673 0 5.666 5.669 11.339 5.669 5.672 0 5.666-5.669 11.338-5.669" stroke-linecap="butt" stroke-linejoin="bevel"/><path d="m246.614 513.071c5.673 0 5.666 5.669 11.339 5.669 5.672 0 5.666-5.669 11.338-5.669" stroke-linecap="butt" stroke-linejoin="bevel"/><path d="m277.795 513.071c5.673 0 5.666 5.669 11.339 5.669s5.666-5.669 11.338-5.669" stroke-linecap="butt" stroke-linejoin="bevel"/><path d="m308.976 513.071c5.673 0 5.666 5.669 11.339 5.669s5.666-5.669 11.339-5.669" stroke-linecap="butt" stroke-linejoin="bevel"/><path d="m340.157 513.071c5.673 0 5.666 5.669 11.339 5.669s5.666-5.669 11.339-5.669" stroke-linecap="butt" stroke-linejoin="bevel"/><path d="m371.339 513.071c5.672 0 5.665 5.669 11.338 5.669s5.666-5.669 11.339-5.669" stroke-linecap="butt" stroke-linejoin="bevel"/><path d="m399.685 513.071v8.504h8.504v36.85h-8.504v8.504" stroke-linecap="butt" stroke-linejoin="bevel"/><path d="m116.22 566.929v-8.504h-8.503v-45.336" stroke-linecap="butt" stroke-linejoin="bevel"/><path d="m107.717 521.575h8.503v-8.504l2.835-2.835" stroke-linecap="butt" stroke-linejoin="bevel"/><path d="m121.89 513.071c5.674 0 5.664 5.669 11.338 5.669 5.693 0 5.646-5.669 11.339-5.669" stroke-linecap="butt" stroke-linejoin="bevel"/><path d="m530.086 1021.87c0-2.334 1.895-4.229 4.229-4.229s4.229 1.895 4.229 4.229-1.895 4.229-4.229 4.229-4.229-1.895-4.229-4.229zm-476.221 0c0-2.334 1.895-4.229 4.229-4.229 2.335 0 4.23 1.895 4.23 4.229s-1.895 4.229-4.23 4.229c-2.334 0-4.229-1.895-4.229-4.229zm253.694-134.623v93.543h9.922v12.756h-42.52v-12.756h9.921v-93.543zm-15.59-99.213v45.355h8.503v-45.355zm169.715-34.264 21.137 30.186 6.966-4.878-21.137-30.186zm-330.929 0-21.136 30.186-6.966-4.878 21.136-30.186zm349.377-22.437 21.137 30.186 6.966-4.878-21.137-30.186zm-367.824 0-21.137 30.186-6.966-4.878 21.136-30.186zm-19.678-152.149-50.11 50.11 6.013 6.014 50.11-50.11zm407.181 0 50.11 50.11-6.013 6.014-50.11-50.11zm50.11 21.764c2.347 0 4.252 1.905 4.252 4.252s-1.905 4.252-4.252 4.252c-2.346 0-4.252-1.905-4.252-4.252s1.906-4.252 4.252-4.252zm-507.401 0c-2.347 0-4.252 1.905-4.252 4.252s1.905 4.252 4.252 4.252c2.346 0 4.252-1.905 4.252-4.252s-1.906-4.252-4.252-4.252zm-19.499-37.298 26.057-26.057 6.013 6.013-26.057 26.057zm546.49 0-26.057-26.057-6.013 6.013 26.057 26.057z" stroke-linecap="butt" stroke-linejoin="bevel"/><path d="m107.717 538.583-18.426-.023v28.369h413.86l-.001-28.346h-18.426l.001-25.494" stroke-linecap="butt" stroke-linejoin="bevel"/><path d="m583.937 561.26h-8.504v79.37h8.504" stroke-linecap="butt" stroke-linejoin="bevel"/><path d="m583.937 702.992h-8.504v79.37h8.504" stroke-linecap="butt" stroke-linejoin="bevel"/><path d="m583.937 844.724h-8.504v79.37h8.504" stroke-linecap="butt" stroke-linejoin="bevel"/><path d="m1797.16 481.89v-59.528h5.67c2.194 0 2.402-.26 3.595-1.318 8.373-7.422 10.952-12.269 19.094-21.999 1.739-2.078.423-5.277-1.419-6.166-4.322-2.084-4.563-2.201-8.257-3.957-2.866-1.362-.163-6.918 1.942-6.029 2.64 1.116.993 2.744 3.26 3.795 3.564 1.652 3.754 1.729 7.643 3.515 1.258.577 3.077.032 3.873-1.494 2.328-4.463 2.909-5.516 5.71-10.837.806-1.529-.062-4.116-2.027-5.04-5.4-2.542-10.657-4.969-13.3-6.198-3.216-1.495-.442-7.22 1.806-6.169 2.397 1.122.88 2.704 2.937 3.674 2.923 1.379 10.681 5.003 10.681 5.003 2.255.998 3.778-.299 4.119-1.482l2.703-11.734c.19-1.331-.474-3.698-2.334-4.57 0 0-9.2-4.35-15.158-7.113-3.781-1.754-.551-7.356 1.731-6.229 1.766.873 1.209 2.864 2.795 3.611 3.657 1.724 3.865 1.802 8.501 3.941 1.491.689 3.944-1.105 3.336-3.26-5.822-20.632-29.08-21.991-41.231-21.991" stroke-linecap="butt" stroke-linejoin="bevel"/><path d="m2188.35 215.433h-8.503v36.85h8.503z" stroke-linecap="butt" stroke-linejoin="bevel"/><path d="m2011.11 242.362c3.129 0 5.67 2.541 5.67 5.669 0 3.129-2.541 5.67-5.67 5.67s-5.669-2.541-5.669-5.67h-4.252v15.591h-116.771l-.04-59.528h116.811v15.591h4.252c0-3.129 2.54-5.669 5.669-5.669s5.67 2.54 5.67 5.669-2.541 5.669-5.67 5.669z" stroke-linecap="butt" stroke-linejoin="bevel"/><path d="m1880.17 248.031c0 3.129-2.54 5.67-5.669 5.67s-5.669-2.541-5.669-5.67c0-3.128 2.54-5.669 5.669-5.669s5.669 2.541 5.669 5.669z" stroke-linecap="butt" stroke-linejoin="bevel"/><path d="m1880.17 219.685c0 3.129-2.54 5.669-5.669 5.669s-5.669-2.54-5.669-5.669 2.54-5.669 5.669-5.669 5.669 2.54 5.669 5.669z" stroke-linecap="butt" stroke-linejoin="bevel"/><path d="m1788.66 204.094h8.504v59.528h-8.504" stroke-linecap="butt" stroke-linejoin="bevel"/><path d="m1788.66 311.811h8.504v8.504h416.693v-68.032h-17.008v-36.85h17.008v-53.858h-8.504v-14.173" stroke-linecap="butt" stroke-linejoin="bevel"/><path d="m2205.35 320.315v-14.173h8.504" stroke-linecap="butt" stroke-linejoin="bevel"/><path d="m1797.16 147.402v8.504h-51.023v325.984h.001-8.504c-2.162 0-2.867 1.267-2.835 5.669.04 5.529 1.6 15.879 32.641 15.879s32.556-10.24 32.556-15.879c0-4.316-.759-5.669-2.835-5.669h-8.504l-.001-325.984" stroke-linecap="butt" stroke-linejoin="bevel"/><path d="m1777.32 170.079h2.835v306.142h-2.835z" stroke-linecap="butt" stroke-linejoin="bevel"/><path d="m1754.65 170.079h2.835v306.142h-2.835z" stroke-linecap="butt" stroke-linejoin="bevel"/><path d="m1655.43 164.409h8.504v-8.503" stroke-linecap="butt" stroke-linejoin="bevel"/><path d="m1709.29 164.409v5.67c0 5.674-5.669 5.664-5.669 11.338 0 5.693 5.669 5.646 5.669 11.339v8.504c0 5.693-5.669 5.646-5.669 11.338 0 5.693 5.669 5.646 5.669 11.339v8.504c0 5.673-5.669 5.666-5.669 11.339 0 5.672 5.669 5.665 5.669 11.338v8.504c0 5.673-5.669 5.666-5.669 11.339 0 5.672 5.669 5.665 5.669 11.338v8.504c0 5.673-5.669 5.666-5.669 11.339 0 5.672 5.669 5.666 5.669 11.338v8.504c0 5.673-5.669 5.666-5.669 11.339s5.669 5.666 5.669 11.338v8.504c0 5.673-5.669 5.666-5.669 11.339s5.669 5.666 5.669 11.339v8.503c0 5.673-5.669 5.666-5.669 11.339s5.669 5.666 5.669 11.339v8.504c0 5.672-5.669 5.665-5.669 11.338s5.669 5.666 5.669 11.339v5.669h-8.504v8.504h-36.85v-8.504h-8.504v-439.37h82.205v68.031h8.504v-22.677h394.015v22.677h8.504v-68.031h82.205v39.685h-8.504v70.866h8.504v28.347h-575.433" stroke-linecap="butt" stroke-linejoin="bevel"/><path d="m1746.14 456.378h-36.851v-8.504h14.174v-8.504h-14.774" stroke-linecap="butt" stroke-linejoin="bevel"/><path d="m1708.69 172.913h14.773v-8.504h-22.678v-8.503h-45.354" stroke-linecap="butt" stroke-linejoin="bevel"/><path d="m1746.14 53.858v-7.086h79.37v-8.504h73.701v8.504h87.874v-8.504h73.7v8.504h79.37v7.086" stroke-linecap="butt" stroke-linejoin="bevel"/><path d="m1865.2 116.22h48.189v8.504h-48.189z" stroke-linecap="butt" stroke-linejoin="bevel"/><path d="m1972.91 116.22h48.189v8.504h-48.189z" stroke-linecap="butt" stroke-linejoin="bevel"/><path d="m1655.43 119.055h8.504v-70.866h-8.504" stroke-linecap="butt" stroke-linejoin="bevel"/><path d="m1646.93 375.591c0 2.346-1.905 4.252-4.252 4.252s-4.252-1.906-4.252-4.252c0-2.347 1.905-4.252 4.252-4.252s4.252 1.905 4.252 4.252z" stroke-linecap="butt" stroke-linejoin="bevel"/><path d="m1646.93 87.874c0 2.347-1.905 4.252-4.252 4.252s-4.252-1.905-4.252-4.252 1.905-4.252 4.252-4.252 4.252 1.905 4.252 4.252z" stroke-linecap="butt" stroke-linejoin="bevel"/><path d="m1655.43 442.205h-34.016v-31.181h8.504v-374.174l25.512-2.834" stroke-linecap="butt" stroke-linejoin="bevel"/><path d="m8.504 34.016v408.189h34.016v-31.181h-8.504v-374.174l-25.512-2.834zm8.504 53.858c0 2.347 1.905 4.252 4.252 4.252s4.252-1.905 4.252-4.252-1.905-4.252-4.252-4.252-4.252 1.905-4.252 4.252zm0 287.717c0 2.346 1.905 4.252 4.252 4.252s4.252-1.906 4.252-4.252c0-2.347-1.905-4.252-4.252-4.252s-4.252 1.905-4.252 4.252z" stroke-linecap="butt" stroke-linejoin="bevel"/><path d="m1570.39 437.953c0 2.346-1.906 4.252-4.252 4.252-2.347 0-4.252-1.906-4.252-4.252 0-2.347 1.905-4.252 4.252-4.252 2.346 0 4.252 1.905 4.252 4.252zm0-287.717c0 2.347-1.906 4.252-4.252 4.252-2.347 0-4.252-1.905-4.252-4.252s1.905-4.252 4.252-4.252c2.346 0 4.252 1.905 4.252 4.252zm38.29 56.693c0 2.347-1.905 4.252-4.252 4.252s-4.252-1.905-4.252-4.252 1.905-4.252 4.252-4.252 4.252 1.905 4.252 4.252zm-.023 219.685c0 2.347-1.905 4.252-4.252 4.252-2.346 0-4.252-1.905-4.252-4.252s1.906-4.252 4.252-4.252c2.347 0 4.252 1.905 4.252 4.252zm-1.196-315.842c0 1.687-1.369 3.056-3.056 3.056-1.686 0-3.055-1.369-3.055-3.056 0-1.686 1.369-3.055 3.055-3.055 1.687 0 3.056 1.369 3.056 3.055zm0 19.184c0 1.687-1.369 3.056-3.056 3.056-1.686 0-3.055-1.369-3.055-3.056 0-1.686 1.369-3.055 3.055-3.055 1.687 0 3.056 1.369 3.056 3.055zm45.133 339.178c0 2.347-1.905 4.252-4.252 4.252-2.346 0-4.252-1.905-4.252-4.252s1.906-4.252 4.252-4.252c2.347 0 4.252 1.905 4.252 4.252z" stroke-linecap="butt" stroke-linejoin="bevel"/><path d="m1544.88 513.071v-39.685h-8.504v-70.866h17.008v-79.37h-8.504v8.504h-8.504v-70.867h17.008v-79.37h-8.504v8.504h-8.504v-70.866" stroke-linecap="butt" stroke-linejoin="bevel"/><path d="m1536.4 147.402h-8.527v-28.347h25.512v-31.181h25.512v-5.669l2.834-2.835h19.843l2.834 2.835v5.669h17.008v73.701h8.504" stroke-linecap="butt" stroke-linejoin="bevel"/><path d="m1629.92 252.283h-8.504v68.032h8.504" stroke-linecap="butt" stroke-linejoin="bevel"/><path d="m1644.09 442.205c11.37 0 17.008 12.939 17.008 26.929 0 13.989-5.57 26.929-17.008 26.929h-22.677l-8.504 8.504h-14.173v5.669l-2.834 2.835" stroke-linecap="butt" stroke-linejoin="bevel"/><path d="m1544.88 510.236 2.835 2.835" stroke-linecap="butt" stroke-linejoin="bevel"/><path d="m34.016 252.283h8.504v68.032h-8.504" stroke-linecap="butt" stroke-linejoin="bevel"/><path d="m93.543 437.953c0 2.346 1.906 4.252 4.252 4.252 2.347 0 4.252-1.906 4.252-4.252 0-2.347-1.905-4.252-4.252-4.252-2.346 0-4.252 1.905-4.252 4.252zm0-287.717c0 2.347 1.906 4.252 4.252 4.252 2.347 0 4.252-1.905 4.252-4.252s-1.905-4.252-4.252-4.252c-2.346 0-4.252 1.905-4.252 4.252zm-38.29 56.693c0 2.347 1.905 4.252 4.252 4.252s4.252-1.905 4.252-4.252-1.905-4.252-4.252-4.252-4.252 1.905-4.252 4.252zm.023 219.685c0 2.347 1.905 4.252 4.252 4.252 2.346 0 4.252-1.905 4.252-4.252s-1.906-4.252-4.252-4.252c-2.347 0-4.252 1.905-4.252 4.252zm1.196-315.842c0 1.687 1.369 3.056 3.056 3.056 1.686 0 3.055-1.369 3.055-3.056 0-1.686-1.369-3.055-3.055-3.055-1.687 0-3.056 1.369-3.056 3.055zm0 19.184c0 1.687 1.369 3.056 3.056 3.056 1.686 0 3.055-1.369 3.055-3.056 0-1.686-1.369-3.055-3.055-3.055-1.687 0-3.056 1.369-3.056 3.055zm-45.133 339.178c0 2.347 1.905 4.252 4.252 4.252 2.346 0 4.252-1.905 4.252-4.252s-1.906-4.252-4.252-4.252c-2.347 0-4.252 1.905-4.252 4.252z" stroke-linecap="butt" stroke-linejoin="bevel"/><path d="m19.843 442.205c-11.37 0-17.008 12.939-17.008 26.929 0 13.989 5.57 26.929 17.008 26.929h22.677l8.504 8.504h14.173v5.669l2.834 2.835" stroke-linecap="butt" stroke-linejoin="bevel"/><path d="m119.055 513.071v-39.685h8.504v-70.866h-17.008v-79.37h8.504v8.504h8.504v-70.867h-17.008v-79.37h8.504v8.504h8.504v-70.866" stroke-linecap="butt" stroke-linejoin="bevel"/><path d="m127.536 147.402h8.527v-28.347h-25.512v-31.181h-25.512v-5.669l-2.834-2.835h-19.843l-2.834 2.835v5.669h-17.008v73.701h-8.504" stroke-linecap="butt" stroke-linejoin="bevel"/><path d="m119.055 119.055-8.504-79.37h8.504v8.504h17.008v-39.685h1391.81v39.685h17.008v-8.504h8.504l-8.504 79.37" stroke-linecap="butt" stroke-linejoin="bevel"/><path d="m1233.07 496.063h167.244v8.504h-167.244z" stroke-linecap="butt" stroke-linejoin="bevel"/><path d="m1553.39 181.417-8.504 79.37" stroke-linecap="butt" stroke-linejoin="bevel"/><path d="m1553.39 323.15-8.504 79.37" stroke-linecap="butt" stroke-linejoin="bevel"/><path d="m643.442 504.567h93.543v-8.504h-93.543zm377.008 0h-93.544v-8.504h93.544zm-184.252-218.268h-8.504v-102.047h8.504zm14.173-170.079h53.881v8.504h-53.881zm-90.686 8.504h53.836v-8.504h-53.836zm269.269-93.543h8.504l.022 53.858h-8.504zm-394.034 0h-8.504l.041 53.858h8.504z" stroke-linecap="butt" stroke-linejoin="bevel"/><path d="m1111.16 513.071v-39.685h8.504v-70.866h-8.504v-70.866h8.504v-70.867h-8.504v-70.866h8.504v-70.866h-8.504v-70.866h8.504v-39.685" stroke-linecap="butt" stroke-linejoin="bevel"/><path d="m263.622 496.063h167.244v8.504h-167.244z" stroke-linecap="butt" stroke-linejoin="bevel"/><path d="m110.551 181.417 8.504 79.37" stroke-linecap="butt" stroke-linejoin="bevel"/><path d="m110.551 323.15 8.504 79.37" stroke-linecap="butt" stroke-linejoin="bevel"/><path d="m552.756 513.071v-39.685h-8.504v-70.866h8.504v-70.866h-8.504v-70.867h8.504v-70.866h-8.504v-70.866h8.504v-70.866h-8.504v-39.685" stroke-linecap="butt" stroke-linejoin="bevel"/><path d="m2206.79 70.866h-19.842v31.181h19.842zm-507.401 0h-19.843v31.181h19.843z" stroke-linecap="butt" stroke-linejoin="bevel"/><path d="m1544.88 430.866h8.504v14.173h-8.504z"/><path d="m110.551 430.866h8.504v14.173h-8.504z"/></g></g></svg>