<svg clip-rule="evenodd" fill-rule="evenodd" stroke-linejoin="round" stroke-miterlimit="2" viewBox="0 0 2240 1089" xmlns="http://www.w3.org/2000/svg"><g fill="none"><path d="m0 0h2239.37v1088.5h-2239.37z"/><g stroke="#0063ff" stroke-linejoin="bevel" stroke-miterlimit="1" stroke-opacity=".6"><path d="m609.449 904.252v144.567h8.504v19.842h283.464v-19.842h8.504v-144.567h-59.527v-8.504h-65.197"/><path d="m1629.92 181.417v-144.567h-8.504v-19.842h-283.464v19.842h-8.504v144.567h59.527v8.504h65.197"/><path d="m722.835 671.811h8.504v-38.268h5.669v-42.519h-5.669v-15.591h53.858v-8.504h65.197v8.504h51.023v107.717h11.339c6.258 0 11.338 5.08 11.338 11.338s-5.08 11.339-11.338 11.339h-11.339v141.732h11.339c6.258 0 11.338 5.081 11.338 11.339s-5.08 11.338-11.338 11.338h-11.339v53.858h-8.504c-14.221 0-2.786 14.174-17.007 14.174h-232.441c-14.203 0-2.806-14.174-17.008-14.174h-8.504v-19.842"/><path d="m1516.54 413.858h-8.504v38.268h-5.669v42.52h5.669v15.59h-53.858v8.504h-65.197v-8.504h-51.023v-107.716h-11.339c-6.258 0-11.338-5.081-11.338-11.339s5.08-11.338 11.338-11.338h11.339v-141.733h-11.339c-6.258 0-11.338-5.08-11.338-11.338s5.08-11.339 11.338-11.339h11.339v-53.858h8.504c14.221 0 2.786-14.173 17.008-14.173h232.441c14.202 0 2.805 14.173 17.007 14.173h8.504v19.842"/><path d="m892.913 996.378c-14.221 0-2.786 14.173-17.007 14.173h-232.441c-14.203 0-2.806-14.173-17.008-14.173"/><path d="m1346.46 89.291c14.221 0 2.786-14.173 17.008-14.173h232.441c14.202 0 2.805 14.173 17.007 14.173"/><path d="m609.449 976.535h8.504v19.843h283.464v-19.843h8.504"/><path d="m1629.92 109.134h-8.504v-19.843h-283.464v19.843h-8.504"/><path d="m680.315 904.252v34.016"/><path d="m1559.06 181.417v-34.015"/><path d="m705.827 925.516-42.52-.004v-8.504h42.52v-.007z"/><path d="m1533.54 160.154 42.52.003v8.504h-42.52v.007z"/><path d="m646.299 904.252v34.016"/><path d="m1593.07 181.417v-34.015"/><path d="m917.008 858.898c0-2.347-1.905-4.252-4.252-4.252s-4.252 1.905-4.252 4.252c0 2.346 1.905 4.252 4.252 4.252s4.252-1.906 4.252-4.252m-194.173 22.677h8.504v22.677h53.858v-8.504"/><path d="m1322.36 226.772c0 2.346 1.905 4.252 4.252 4.252s4.252-1.906 4.252-4.252c0-2.347-1.905-4.252-4.252-4.252s-4.252 1.905-4.252 4.252m194.173-22.678h-8.504v-22.677h-53.858v8.504"/><path d="m901.417 813.543h-51.023v8.504h-65.197v-8.504h-53.858v22.677h-8.504"/><path d="m1337.95 272.126h51.023v-8.504h65.197v8.504h53.858v-22.677h8.504"/><path d="m722.835 847.559h41.102v22.677h-41.102"/><path d="m1516.54 238.11h-41.102v-22.677h41.102"/><path d="m739.843 739.843v73.7m8.503-36.85 5.67-4.252v8.504z"/><path d="m1499.53 345.827v-73.701m-8.504 36.85-5.67 4.252v-8.504z"/><path d="m901.417 649.134h-51.023v8.504h-65.197v-8.504h-53.858m185.669 45.354c0-2.347-1.905-4.252-4.252-4.252s-4.252 1.905-4.252 4.252 1.905 4.252 4.252 4.252 4.252-1.905 4.252-4.252z"/><path d="m1337.95 436.535h51.023v-8.504h65.197v8.504h53.858m-185.669-45.354c0 2.347 1.905 4.252 4.252 4.252s4.252-1.905 4.252-4.252-1.905-4.252-4.252-4.252-4.252 1.905-4.252 4.252z"/><path d="m722.835 683.15h41.102v22.677h-41.102"/><path d="m1516.54 402.52h-41.102v-22.677h41.102"/><path d="m722.835 717.165h8.504v22.678h53.858v-8.504h65.197v8.504h51.023"/><path d="m1516.54 368.504h-8.504v-22.677h-53.858v8.504h-65.197v-8.504h-51.023"/><path d="m654.803 853.228h24.072v-22.677h-8.504v-45.354h8.504v-45.354h-8.504v-45.355h8.549v-45.354h-8.504v-22.677h24.072"/><path d="m1584.57 232.441h-24.072v22.677h8.504v45.354h-8.504v45.355h8.504v45.354h-8.549v45.354h8.504v22.678h-24.072"/><path d="m694.488 717.165h-24.072"/><path d="m1544.88 368.504h24.072"/><path d="m670.416 807.874h24.072"/><path d="m1568.95 277.795h-24.072"/><path d="m678.92 671.811h-24.117"/><path d="m1560.45 413.858h24.117"/><path d="m654.803 762.52h24.117"/><path d="m1584.57 323.15h-24.117"/><path d="m670.394 626.457c-2.655 0-9.922-10.753-9.922-28.347h-4.252c0-11.106 8.089-28.346 14.174-28.346"/><path d="m1568.98 459.213c2.655 0 9.922 10.752 9.922 28.346h4.252c0 11.106-8.089 28.347-14.174 28.347"/><path d="m678.898 615.118c6.084 0 14.173-17.24 14.173-28.346h-4.252c0-17.594-7.267-28.347-9.921-28.347h-8.504v19.843h8.504v14.173h-8.504v14.172l8.504.001v19.843"/><path d="m1560.47 470.551c-6.084 0-14.173 17.24-14.173 28.347h4.252c0 17.594 7.267 28.346 9.921 28.346h8.504v-19.842h-8.504v-14.174h8.504v-14.172l-8.504-.001v-19.842"/><path d="m615.118 712.913v8.504h-19.842v-8.504zm-19.842-19.842h19.842v8.504h-19.842zm48.189 8.732h-14.174v-8.504h14.174zm0 11.11v8.504h-14.174v-8.504zm2.834 77.953h-8.504v-22.677h8.504zm0 68.032h-8.504v-22.678h8.504zm-8.504-235.276h8.504v22.677h-8.504zm8.504-45.354h-8.504v-22.677h8.504zm8.504 274.96c0 10.952 8.891 19.843 19.843 19.843 10.951 0 19.842-8.891 19.842-19.843v-291.968c0-10.952-8.891-19.843-19.842-19.843-10.952 0-19.843 8.891-19.843 19.843zm87.874-411.023v17.008h5.669l2.835 2.834v28.347l-2.835 2.834h-5.669v17.008h-408.189l-8.504 8.504v445.04h-17.008v-51.024"/><path d="m1624.25 372.756v-8.504h19.842v8.504zm19.842 19.842h-19.842v-8.504h19.842zm-48.188-8.731h14.173v8.503h-14.173zm0-11.111v-8.504h14.173v8.504zm-2.835-77.953h8.504v22.677h-8.504zm0-68.031h8.504v22.677h-8.504zm8.504 235.275h-8.504v-22.677h8.504zm-8.504 45.355h8.504v22.677h-8.504zm-8.504-274.961c0-10.951-8.891-19.843-19.843-19.843-10.951 0-19.842 8.892-19.842 19.843v291.968c0 10.952 8.891 19.843 19.842 19.843 10.952 0 19.843-8.891 19.843-19.843zm-87.874 411.024v-17.008h-5.669l-2.835-2.835v-28.346l2.835-2.835h5.669v-17.008h408.189l8.504-8.504v-445.039h17.008v51.023"/><path d="m325.984 895.748 8.504 8.504h388.347"/><path d="m1913.39 189.921-8.504-8.504h-388.347"/><path d="m722.835 938.268v-428.032"/><path d="m1516.54 147.402v428.031"/><path d="m817.818 447.874c31.29 0 56.693 25.403 56.693 56.693s-25.403 56.693-56.693 56.693-56.693-25.403-56.693-56.693 25.403-56.693 56.693-56.693zm0 93.543c2.347 0 4.252 1.906 4.252 4.252 0 2.347-1.905 4.252-4.252 4.252s-4.252-1.905-4.252-4.252c0-2.346 1.905-4.252 4.252-4.252zm-28.231-20.551c2.347 4.065.952 9.27-3.113 11.617-4.064 2.346-9.27.952-11.616-3.113-2.347-4.065-.952-9.27 3.112-11.617 4.065-2.346 9.27-.952 11.617 3.113zm56.462 0c2.347-4.065 7.552-5.459 11.617-3.113 4.064 2.347 5.459 7.552 3.112 11.617-2.346 4.065-7.552 5.459-11.616 3.113-4.065-2.347-5.46-7.552-3.113-11.617zm-28.231-34.724c10.169 0 18.425 8.256 18.425 18.425s-8.256 18.425-18.425 18.425-18.425-8.256-18.425-18.425 8.256-18.425 18.425-18.425zm31.913 0c-1.173-2.033-.476-4.635 1.557-5.809 2.032-1.173 4.635-.476 5.808 1.557 1.173 2.032.476 4.635-1.556 5.808-2.033 1.173-4.635.476-5.809-1.556zm-63.826 0c-1.174 2.032-3.776 2.729-5.809 1.556-2.032-1.173-2.729-3.776-1.556-5.808 1.173-2.033 3.776-2.73 5.808-1.557 2.033 1.174 2.73 3.776 1.557 5.809zm31.913-14.173c-4.693 0-8.504-3.811-8.504-8.504 0-4.694 3.811-8.504 8.504-8.504s8.504 3.81 8.504 8.504c0 4.693-3.811 8.504-8.504 8.504z"/><path d="m1421.55 637.795c-31.29 0-56.693-25.403-56.693-56.693 0-31.289 25.403-56.693 56.693-56.693s56.693 25.404 56.693 56.693c0 31.29-25.403 56.693-56.693 56.693zm0-93.543c-2.347 0-4.252-1.905-4.252-4.252s1.905-4.252 4.252-4.252 4.252 1.905 4.252 4.252-1.905 4.252-4.252 4.252zm28.231 20.551c-2.347-4.064-.952-9.27 3.113-11.616 4.064-2.347 9.27-.952 11.616 3.112 2.347 4.065.952 9.27-3.112 11.617-4.065 2.347-9.27.952-11.617-3.113zm-56.462 0c-2.347 4.065-7.552 5.46-11.617 3.113-4.064-2.347-5.459-7.552-3.112-11.617 2.347-4.064 7.552-5.459 11.616-3.112 4.065 2.346 5.46 7.552 3.113 11.616zm28.231 34.725c-10.169 0-18.425-8.256-18.425-18.426 0-10.169 8.256-18.425 18.425-18.425s18.425 8.256 18.425 18.425c0 10.17-8.256 18.426-18.425 18.426zm-31.913 0c1.173 2.032.476 4.634-1.557 5.808-2.032 1.173-4.635.476-5.808-1.556-1.173-2.033-.476-4.635 1.556-5.809 2.033-1.173 4.635-.476 5.809 1.557zm63.827 0c1.173-2.033 3.775-2.73 5.808-1.557 2.032 1.174 2.729 3.776 1.556 5.809-1.173 2.032-3.776 2.729-5.808 1.556-2.032-1.174-2.73-3.776-1.556-5.808zm-31.914 14.173c4.694 0 8.504 3.81 8.504 8.504 0 4.693-3.81 8.504-8.504 8.504-4.693 0-8.504-3.811-8.504-8.504 0-4.694 3.811-8.504 8.504-8.504z"/><path d="m728.504 501.732v-17.008h-36.85v17.008zm-104.882-4.252c-2.347 0-4.252-1.905-4.252-4.252 0-2.346 1.905-4.252 4.252-4.252s4.252 1.906 4.252 4.252c0 2.347-1.905 4.252-4.252 4.252zm-219.685 0c-2.347 0-4.252-1.905-4.252-4.252 0-2.346 1.905-4.252 4.252-4.252s4.252 1.906 4.252 4.252c0 2.347-1.905 4.252-4.252 4.252zm-77.953-480.472v484.724l8.504 8.504"/><path d="m1510.87 583.937v17.008h36.851v-17.008zm104.882 4.252c2.347 0 4.252 1.905 4.252 4.252s-1.905 4.252-4.252 4.252-4.252-1.905-4.252-4.252 1.905-4.252 4.252-4.252zm219.685 0c2.347 0 4.252 1.905 4.252 4.252s-1.905 4.252-4.252 4.252-4.252-1.905-4.252-4.252 1.905-4.252 4.252-4.252zm77.953 480.472v-484.724l-8.504-8.504"/><path d="m751.181 476.22h-425.197"/><path d="m1488.19 609.449h425.197"/><path d="m325.984 450.709 8.504-8.504m394.016 8.504v17.008h-36.85v-17.008zm-104.882 4.252c-2.347 0-4.252 1.905-4.252 4.252 0 2.346 1.905 4.252 4.252 4.252s4.252-1.906 4.252-4.252c0-2.347-1.905-4.252-4.252-4.252zm-219.685 0c-2.347 0-4.252 1.905-4.252 4.252 0 2.346 1.905 4.252 4.252 4.252s4.252-1.906 4.252-4.252c0-2.347-1.905-4.252-4.252-4.252z"/><path d="m1913.39 634.961-8.504 8.504m-394.016-8.504v-17.008h36.851v17.008zm104.882-4.252c2.347 0 4.252-1.906 4.252-4.252 0-2.347-1.905-4.252-4.252-4.252s-4.252 1.905-4.252 4.252c0 2.346 1.905 4.252 4.252 4.252zm219.685 0c2.347 0 4.252-1.906 4.252-4.252 0-2.347-1.905-4.252-4.252-4.252s-4.252 1.905-4.252 4.252c0 2.346 1.905 4.252 4.252 4.252z"/><path d="m1258.58 464.882c31.289 0 56.693-25.403 56.693-56.693s-25.404-56.693-56.693-56.693c-31.29 0-56.693 25.403-56.693 56.693s25.403 56.693 56.693 56.693zm0-19.843c-2.347 0-4.252 1.906-4.252 4.252 0 2.347 1.905 4.252 4.252 4.252 2.346 0 4.252-1.905 4.252-4.252 0-2.346-1.906-4.252-4.252-4.252zm19.185 2.899 1.127-.116 1.091-.303 1.026-.482.93-.647.808-.794.664-.918.5-1.016.323-1.086.137-1.125-.055-1.132-.243-1.106-4.881-15.737 2.933-5.08 16.068-3.641 1.08-.343 1.008-.518.906-.681.779-.822.63-.942.463-1.034.284-1.097.095-1.129-.095-1.129-.284-1.097-.463-1.034-.63-.942-.779-.822-.906-.681-1.008-.518-1.08-.343-16.068-3.641-2.933-5.08 4.881-15.737.243-1.106.055-1.132-.137-1.125-.323-1.086-.5-1.016-.664-.918-.808-.794-.93-.647-1.026-.482-1.091-.303-1.127-.116-1.131.075-1.102.263-1.042.445-.953.613-.837.764-11.187 12.095h-5.867l-11.187-12.095-.837-.764-.952-.613-1.043-.445-1.102-.263-1.13-.075-1.127.116-1.092.303-1.025.482-.931.647-.808.794-.664.918-.5 1.016-.323 1.086-.136 1.125.054 1.132.244 1.106 4.881 15.737-2.934 5.08-16.068 3.641-1.08.343-1.007.518-.906.681-.779.822-.631.942-.463 1.034-.283 1.097-.096 1.129.096 1.129.283 1.097.463 1.034.631.942.779.822.906.681 1.007.518 1.08.343 16.068 3.641 2.934 5.08-4.881 15.737-.244 1.106-.054 1.132.136 1.125.323 1.086.5 1.016.664.918.808.794.931.647 1.025.482 1.092.303 1.249.117 1.008-.076 1.102-.263 1.043-.445.952-.613.837-.764 11.187-12.095h5.867l11.187 12.095.837.764.953.613 1.042.445 1.102.263zm-51.099-21.324c1.174 2.032.476 4.635-1.556 5.808-2.032 1.174-4.635.476-5.808-1.556-1.174-2.032-.476-4.635 1.556-5.808 2.032-1.174 4.635-.476 5.808 1.556zm63.827 0c1.173-2.032 3.776-2.73 5.808-1.556 2.033 1.173 2.73 3.776 1.557 5.808-1.174 2.032-3.776 2.73-5.809 1.556-2.032-1.173-2.729-3.776-1.556-5.808zm-63.827-36.85c1.174-2.033.476-4.635-1.556-5.809-2.032-1.173-4.635-.476-5.808 1.557-1.174 2.032-.476 4.635 1.556 5.808s4.635.476 5.808-1.556zm63.827 0c1.173 2.032 3.776 2.729 5.808 1.556 2.033-1.173 2.73-3.776 1.557-5.808-1.174-2.033-3.776-2.73-5.809-1.557-2.032 1.174-2.729 3.776-1.556 5.809zm-31.913-18.425c-2.347 0-4.252-1.906-4.252-4.252 0-2.347 1.905-4.252 4.252-4.252 2.346 0 4.252 1.905 4.252 4.252 0 2.346-1.906 4.252-4.252 4.252z"/><path d="m980.787 620.787c-31.289 0-56.693 25.404-56.693 56.693 0 31.29 25.404 56.693 56.693 56.693 31.29 0 56.693-25.403 56.693-56.693 0-31.289-25.403-56.693-56.693-56.693zm0 19.843c2.347 0 4.252-1.905 4.252-4.252s-1.905-4.252-4.252-4.252c-2.346 0-4.252 1.905-4.252 4.252s1.906 4.252 4.252 4.252zm-19.184-2.899-1.128.116-1.091.303-1.026.482-.93.647-.808.794-.664.918-.5 1.017-.323 1.086-.136 1.124.054 1.132.243 1.107 4.881 15.736-2.933 5.081-16.068 3.64-1.08.343-1.008.519-.906.68-.779.823-.63.941-.463 1.034-.283 1.097-.096 1.129.096 1.129.283 1.097.463 1.034.63.942.779.823.906.68 1.008.519 1.08.342 16.068 3.641 2.933 5.081-4.881 15.736-.243 1.106-.054 1.132.136 1.125.323 1.086.5 1.017.664.918.808.794.93.647 1.026.482 1.091.303 1.128.116 1.13-.075 1.102-.264 1.042-.444.953-.613.837-.764 11.187-12.095h5.867l11.187 12.095.837.764.953.613 1.042.444 1.102.264 1.13.075 1.127-.116 1.092-.303 1.026-.482.93-.647.808-.794.664-.918.5-1.017.323-1.086.136-1.125-.054-1.132-.244-1.106-4.881-15.736 2.934-5.081 16.068-3.641 1.08-.342 1.007-.519.906-.68.78-.823.63-.942.463-1.034.283-1.097.096-1.129-.096-1.129-.283-1.097-.463-1.034-.63-.941-.78-.823-.906-.68-1.007-.519-1.08-.343-16.068-3.64-2.934-5.081 4.881-15.736.244-1.107.054-1.132-.136-1.124-.323-1.086-.5-1.017-.664-.918-.808-.794-.93-.647-1.026-.482-1.092-.303-1.249-.117-1.008.076-1.102.263-1.042.445-.953.613-.837.764-11.187 12.095h-5.867l-11.187-12.095-.837-.764-.953-.613-1.042-.445-1.102-.263zm51.098 21.324c-1.174-2.032-.476-4.635 1.556-5.808 2.032-1.174 4.635-.476 5.808 1.556 1.174 2.032.476 4.635-1.556 5.808-2.032 1.174-4.635.476-5.808-1.556zm-63.827 0c-1.173 2.032-3.776 2.73-5.808 1.556-2.033-1.173-2.73-3.776-1.557-5.808 1.174-2.032 3.776-2.73 5.809-1.556 2.032 1.173 2.729 3.776 1.556 5.808zm63.827 36.851c-1.174 2.032-.476 4.634 1.556 5.808 2.032 1.173 4.635.476 5.808-1.557 1.174-2.032.476-4.634-1.556-5.808-2.032-1.173-4.635-.476-5.808 1.557zm-63.827 0c-1.173-2.033-3.776-2.73-5.808-1.557-2.033 1.174-2.73 3.776-1.557 5.808 1.174 2.033 3.776 2.73 5.809 1.557 2.032-1.174 2.729-3.776 1.556-5.808zm31.913 18.425c2.347 0 4.252 1.905 4.252 4.252 0 2.346-1.905 4.252-4.252 4.252-2.346 0-4.252-1.906-4.252-4.252 0-2.347 1.906-4.252 4.252-4.252z"/><path d="m1201.89 23.962c17.73-6.337 36.823-9.789 56.715-9.789 19.874 0 38.95 3.445 56.671 9.773v160.329c0 31.289-25.404 56.693-56.693 56.693-31.29 0-56.693-25.404-56.693-56.693v-160.313zm56.693 197.163c2.346 0 4.252 1.905 4.252 4.252s-1.906 4.252-4.252 4.252c-2.347 0-4.252-1.905-4.252-4.252s1.905-4.252 4.252-4.252zm-28.231-20.551c2.346 4.065.952 9.27-3.113 11.616-4.065 2.347-9.27.952-11.617-3.112-2.346-4.065-.952-9.27 3.113-11.617s9.27-.952 11.617 3.113zm56.462 0c2.346-4.065 7.552-5.46 11.616-3.113 4.065 2.347 5.46 7.552 3.113 11.617-2.347 4.064-7.552 5.459-11.617 3.112-4.064-2.346-5.459-7.551-3.112-11.616zm-28.231-7.795c-4.694 0-8.504-3.811-8.504-8.504 0-4.694 3.81-8.504 8.504-8.504 4.693 0 8.504 3.81 8.504 8.504 0 4.693-3.811 8.504-8.504 8.504zm31.913-26.93c-1.173-2.032-.476-4.634 1.556-5.808 2.033-1.173 4.635-.476 5.809 1.556 1.173 2.033.476 4.635-1.557 5.809-2.032 1.173-4.635.476-5.808-1.557zm-63.827 0c-1.173 2.033-3.776 2.73-5.808 1.557-2.032-1.174-2.73-3.776-1.556-5.809 1.173-2.032 3.776-2.729 5.808-1.556 2.032 1.174 2.73 3.776 1.556 5.808zm31.914-14.173c-4.694 0-8.504-3.81-8.504-8.504 0-4.693 3.81-8.504 8.504-8.504 4.693 0 8.504 3.811 8.504 8.504 0 4.694-3.811 8.504-8.504 8.504zm-4.252-110.551v-8.504h-12.756v8.504zm8.504 0h12.756v-8.504h-12.756z"/><path d="m1037.48 1061.71c-17.73 6.338-36.823 9.789-56.715 9.789-19.874 0-38.95-3.445-56.671-9.772v-160.329c0-31.29 25.404-56.693 56.693-56.693 31.29 0 56.693 25.403 56.693 56.693zm-56.693-197.163c-2.346 0-4.252-1.905-4.252-4.252 0-2.346 1.906-4.252 4.252-4.252 2.347 0 4.252 1.906 4.252 4.252 0 2.347-1.905 4.252-4.252 4.252zm28.231 20.551c-2.346-4.064-.952-9.269 3.113-11.616s9.27-.952 11.617 3.112c2.346 4.065.952 9.27-3.113 11.617s-9.27.952-11.617-3.113zm-56.462 0c-2.346 4.065-7.552 5.46-11.616 3.113-4.065-2.347-5.46-7.552-3.113-11.617 2.347-4.064 7.552-5.459 11.617-3.112 4.064 2.347 5.459 7.552 3.112 11.616zm28.231 7.796c4.694 0 8.504 3.81 8.504 8.504 0 4.693-3.81 8.504-8.504 8.504-4.693 0-8.504-3.811-8.504-8.504 0-4.694 3.811-8.504 8.504-8.504zm-31.913 26.929c1.173 2.032.476 4.635-1.556 5.808-2.033 1.174-4.635.476-5.809-1.556-1.173-2.033-.476-4.635 1.557-5.808 2.032-1.174 4.635-.476 5.808 1.556zm63.827 0c1.173-2.032 3.776-2.73 5.808-1.556 2.032 1.173 2.73 3.775 1.556 5.808-1.173 2.032-3.776 2.73-5.808 1.556-2.032-1.173-2.73-3.776-1.556-5.808zm-31.914 14.173c4.694 0 8.504 3.811 8.504 8.504s-3.81 8.504-8.504 8.504c-4.693 0-8.504-3.811-8.504-8.504s3.811-8.504 8.504-8.504zm4.252 110.551v8.504h12.756v-8.504zm-8.504 0h-12.755v8.504h12.755z"/><path d="m1279.84 274.961h-12.756v42.519h12.756zm-58.111 21.259c0-2.346 1.906-4.251 4.252-4.251 2.347 0 4.252 1.905 4.252 4.251 0 2.347-1.905 4.252-4.252 4.252-2.346 0-4.252-1.905-4.252-4.252zm-17.008-4.251h-36.85v8.503h36.85zm-245.7 207.842 50.11 50.11 6.013-6.013-50.11-50.11zm0-407.181 50.11-50.11 6.013 6.013-50.11 50.11zm21.763-50.11c0-2.347 1.906-4.252 4.252-4.252 2.347 0 4.252 1.905 4.252 4.252 0 2.346-1.905 4.252-4.252 4.252-2.346 0-4.252-1.906-4.252-4.252zm0 507.401c0 2.347 1.906 4.252 4.252 4.252 2.347 0 4.252-1.905 4.252-4.252 0-2.346-1.905-4.252-4.252-4.252-2.346 0-4.252 1.906-4.252 4.252zm-37.298-526.991-26.057 26.057 6.013 6.013 26.057-26.057zm0 546.49-26.057-26.057 6.013-6.013 26.057 26.057zm1.582-480.129h-12.473v413.859h12.473zm-43.654-41.102c0-22.583 22.783-39.685 45.355-39.685 57.077 0 128.893 8.02 188.783 76.35l-10.631 7.444 4.878 6.966 11.275-7.895c4 4.879 7.942 10.041 11.818 15.502l-5.534 3.875 4.878 6.966 5.493-3.846c17.39 26.02 33.271 58.458 46.992 98.732 6.866 20.151 29.305 39.685 59.528 39.685 42.071 0 50.511 16.894 51.024 42.52v2.835c-.513 25.626-8.953 42.519-51.024 42.519-30.223 0-52.662 19.535-59.528 39.686-13.721 40.274-29.602 72.712-46.992 98.733l-5.486-3.841-4.878 6.966 5.564 3.896c-3.876 5.461-7.85 10.601-11.85 15.479l-11.281-7.899-4.87 6.972 10.624 7.438c-59.89 68.331-131.706 76.35-188.783 76.35-22.572 0-45.355-17.102-45.355-39.685v-527.244h-102.047v-5.669l-2.835-2.835h-365.669l-2.835 2.835v5.669h-155.905v-8.504h-51.024v8.504h-107.716v-8.504h-51.024v8.504h-53.858v36.85h8.504v51.024h-8.504v107.716h8.504v51.024h-8.504v87.874h8.504v53.858h-8.504v96.378h8.504v51.024h-8.504v107.716h8.504v51.024h-8.504v87.874h8.504v53.858h-8.504v59.528h53.858v-8.504h51.024v8.504h107.716v-8.504h51.024v8.504h90.709v-8.504"/><path d="m959.528 810.709h12.755v-42.52h-12.755zm58.11-21.26c0 2.347-1.905 4.252-4.252 4.252s-4.252-1.905-4.252-4.252 1.905-4.252 4.252-4.252 4.252 1.905 4.252 4.252zm17.008 4.252h36.85v-8.504h-36.85zm245.7-207.843-50.11-50.11-6.013 6.013 50.11 50.11zm0 407.182-50.11 50.11-6.013-6.014 50.11-50.11zm-21.763 50.11c0 2.346-1.906 4.252-4.252 4.252-2.347 0-4.252-1.906-4.252-4.252 0-2.347 1.905-4.252 4.252-4.252 2.346 0 4.252 1.905 4.252 4.252zm0-507.402c0-2.347-1.906-4.252-4.252-4.252-2.347 0-4.252 1.905-4.252 4.252s1.905 4.252 4.252 4.252c2.346 0 4.252-1.905 4.252-4.252zm37.298 526.991 26.057-26.057-6.013-6.013-26.057 26.057zm0-546.49 26.057 26.058-6.013 6.013-26.057-26.057zm-1.582 480.129h12.473v-413.858h-12.473zm43.654 41.102c0 22.583-22.783 39.685-45.355 39.685-57.077 0-128.893-8.02-188.783-76.35l10.631-7.444-4.878-6.966-11.275 7.895c-4-4.879-7.942-10.041-11.818-15.502l5.534-3.875-4.878-6.966-5.493 3.847c-17.39-26.021-33.271-58.458-46.992-98.733-6.865-20.151-29.304-39.685-59.528-39.685-42.071 0-50.511-16.894-51.024-42.52v-2.835c.513-25.626 8.953-42.519 51.024-42.519 30.224 0 52.663-19.535 59.528-39.685 13.721-40.275 29.602-72.713 46.992-98.734l5.486 3.841 4.878-6.966-5.564-3.896c3.876-5.461 7.85-10.6 11.85-15.479l11.281 7.899 4.87-6.971-10.623-7.439c59.889-68.33 131.705-76.35 188.782-76.35 22.572 0 45.355 17.103 45.355 39.685v527.244h102.047v5.67l2.835 2.834h365.669l2.835-2.834v-5.67h155.905v8.504h51.024v-8.504h107.716v8.504h51.024v-8.504h53.858v-36.85h-8.504v-51.024h8.504v-107.716h-8.504v-51.024h8.504v-87.874h-8.504v-53.858h8.504v-96.378h-8.504v-51.024h8.504v-107.716h-8.504v-51.024h8.504v-87.874h-8.504v-53.858h8.504v-59.528h-53.858v8.504h-51.024v-8.504h-107.716v8.504h-51.024v-8.504h-90.709v8.504"/><path d="m819.213 73.701v-48.189h18.425v48.189zm-429.449-48.065h18.425v48.065l-18.425-.125zm18.425 155.781v-90.708h8.504v90.708zm411.024 0h-8.504v-90.708h8.504zm-251.347-17.488h91.669v34.496h-8.984v22.677h8.984v34.496h-91.669v-34.496h8.984v-22.677h-8.984zm242.843 176.228v-90.708h8.504v90.708zm-394.016-90.708v90.708h-8.504v-90.708zm0 121.89v53.858h-8.504v-53.858zm402.52 0v53.858h-8.504v-53.858zm-161.575 31.181v-8.504h73.701v8.504zm-87.874-8.504v8.504h-73.701v-8.504z"/><path d="m1420.16 1011.97v48.188h-18.425v-48.188zm429.449 48.064h-18.425v-48.064l18.425.124zm-18.425-155.781v90.709h-8.504v-90.709zm-411.024 0h8.504v90.709h-8.504zm251.347 17.488h-91.669v-34.496h8.984v-22.677h-8.984v-34.496h91.669v34.496h-8.984v22.677h8.984zm-242.843-176.228v90.708h-8.504v-90.708zm394.016 90.708v-90.708h8.504v90.708zm0-121.889v-53.859h8.504v53.859zm-402.52 0v-53.859h8.504v53.859zm161.575-31.181v8.504h-73.701v-8.504zm87.874 8.504v-8.504h73.701v8.504z"/><path d="m325.984 442.205h575.433"/><path d="m1913.39 643.465h-575.433"/><path d="m413.858 904.252v8.504h107.717v-8.504"/><path d="m1825.51 181.417v-8.504h-107.717v8.504"/><path d="m572.598 904.252v8.504h19.843v51.024h17.008"/><path d="m1666.77 181.417v-8.504h-19.843v-51.023h-17.008"/><path d="m609.449 1017.64h-17.008v51.023h-19.843v8.504h-51.023v-8.504h-107.717v8.504h-51.023v-8.504h-36.851v-51.023h-17.008v51.023h-36.85v8.504h-51.024v-8.504h-107.716v8.504h-51.024v-8.504h-19.842v-51.023h-28.347v-53.858h28.347v-51.024"/><path d="m1629.92 68.031h17.008v-51.023h19.843v-8.504h51.023v8.504h107.717v-8.504h51.023v8.504h36.851v51.023h17.008v-51.023h36.85v-8.504h51.024v8.504h107.716v-8.504h51.024v8.504h19.842v51.023h28.347v53.859h-28.347v51.023"/><path d="m317.48 1017.64v-53.858"/><path d="m1921.89 68.031v53.859"/><path d="m325.984 853.228h-8.504v-53.858h8.504"/><path d="m1913.39 232.441h8.504v53.858h-8.504"/><path d="m325.984 711.496h-8.504v-51.024h8.504"/><path d="m1913.39 374.173h8.504v51.024h-8.504"/><path d="m325.984 552.756h-8.504v-51.024h8.504"/><path d="m1913.39 532.913h8.504v51.024h-8.504"/><path d="m8.504 731.339h53.858v17.007h51.024v-17.007h107.716v17.007h51.024v-17.007h53.858"/><path d="m2230.87 354.331h-53.858v-17.008h-51.024v17.008h-107.716v-17.008h-51.024v17.008h-53.858"/><path d="m325.984 464.882h-53.858v-8.504h-51.024v8.504h-107.716v-8.504h-51.024v8.504h-53.858"/><path d="m1913.39 620.787h53.858v8.504h51.024v-8.504h107.716v8.504h51.024v-8.504h53.858"/><path d="m325.984 351.496h-8.504v53.858h8.504"/><path d="m1913.39 734.173h8.504v-53.858h-8.504"/><path d="m8.504 283.465h53.858v17.007h51.024v-17.007h107.716v17.007h51.024v-17.007h53.858"/><path d="m2230.87 802.205h-53.858v-17.008h-51.024v17.008h-107.716v-17.008h-51.024v17.008h-53.858"/><path d="m325.984 53.858h-8.504v51.024h8.504m-116.22 136.063h-51.024v8.504h51.024zm-180-66.614c-2.347 0-4.252 1.905-4.252 4.252 0 2.346 1.905 4.252 4.252 4.252s4.252-1.906 4.252-4.252c0-2.347-1.905-4.252-4.252-4.252zm136.063-2.835c-2.347 0-4.252 1.905-4.252 4.252s1.905 4.252 4.252 4.252c2.346 0 4.252-1.905 4.252-4.252s-1.906-4.252-4.252-4.252zm-43.937-145.984c-2.347 0-4.252 1.905-4.252 4.252s1.905 4.252 4.252 4.252c2.346 0 4.252-1.905 4.252-4.252s-1.906-4.252-4.252-4.252zm-79.37 0c-2.347 0-4.252 1.905-4.252 4.252s1.905 4.252 4.252 4.252c2.346 0 4.252-1.905 4.252-4.252s-1.906-4.252-4.252-4.252z"/><path d="m1913.39 1031.81h8.504v-51.024h-8.504m116.22-136.063h51.024v-8.504h-51.024zm180 66.615c2.347 0 4.252-1.906 4.252-4.252 0-2.347-1.905-4.252-4.252-4.252-2.346 0-4.252 1.905-4.252 4.252 0 2.346 1.906 4.252 4.252 4.252zm-136.063 2.834c2.347 0 4.252-1.905 4.252-4.252 0-2.346-1.905-4.252-4.252-4.252-2.346 0-4.252 1.906-4.252 4.252 0 2.347 1.906 4.252 4.252 4.252zm43.937 145.984c2.347 0 4.252-1.905 4.252-4.251 0-2.347-1.905-4.252-4.252-4.252-2.346 0-4.252 1.905-4.252 4.252 0 2.346 1.906 4.251 4.252 4.251zm79.37 0c2.347 0 4.252-1.905 4.252-4.251 0-2.347-1.905-4.252-4.252-4.252-2.346 0-4.252 1.905-4.252 4.252 0 2.346 1.906 4.251 4.252 4.251z"/><path d="m325.984 212.598h-8.504v28.347h-17.008v8.504h17.008v14.173h8.504"/><path d="m1913.39 873.071h8.504v-28.347h17.008v-8.504h-17.008v-14.173h-8.504"/></g></g></svg>